<svg width="209" height="140" viewBox="0 0 209 140" fill="none" xmlns="http://www.w3.org/2000/svg">
<g clip-path="url(#clip0_2022_2215)">
<path d="M37.483 52.2567C29.6488 47.6548 20.5962 43.3387 15.2907 41.0177C14.7382 40.8147 14.2424 40.9587 13.8929 41.379C13.2885 42.1369 12.3488 43.5913 11.9049 44.3138C11.4397 45.067 10.6842 46.3657 10.3182 47.1803C9.91208 48.061 9.81764 48.7244 10.4433 49.4729C11.4397 50.7196 13.6757 52.9579 15.2648 54.7052C17.0687 56.7664 18.5585 58.679 18.1335 59.366C17.6896 60.0862 15.3049 59.7013 12.5542 58.9576C10.3961 58.3508 7.33845 57.3709 5.82969 57.0285C4.82857 56.8184 4.33038 57.1891 3.69287 57.9281C3.13092 58.6223 2.24786 59.9776 1.78508 60.7308C1.34119 61.4509 0.517154 62.9337 0.118123 63.727C-0.0991007 64.2252 -0.0259057 64.7683 0.42507 65.1366C4.87107 68.7799 12.8045 74.9825 20.4167 79.9456C20.974 80.288 21.5572 80.1511 21.9255 79.7001C22.53 78.9422 23.3894 77.6176 23.7932 76.9635C24.178 76.3402 25.054 74.8456 25.42 74.0334C25.6584 73.5021 25.5593 72.8528 24.9832 72.5435C22.6787 71.4408 19.0803 69.356 17.0569 68.0196C14.3463 66.2582 12.88 65.0375 13.2247 64.4802C13.6686 63.7601 15.8078 64.3976 18.2138 65.1154C19.8406 65.4837 21.7768 65.8639 23.5287 66.1755C25.3019 66.4541 26.5108 66.2511 27.2593 65.0398C28.0054 63.8262 27.7622 62.6811 26.6194 61.1629C25.5333 59.7698 24.3787 58.1996 23.2973 56.9435C21.5973 55.0806 19.9799 53.4514 20.4026 52.762C20.7662 52.1717 22.4591 52.9461 25.2736 54.5446C27.3773 55.7512 30.8883 58.0509 32.9425 59.6328C33.4596 60.0413 34.083 59.8383 34.4702 59.3542C35.0321 58.6601 36.0144 57.1419 36.3992 56.5185C36.803 55.8621 37.5585 54.5659 37.9646 53.6852C38.2031 53.1539 38.0638 52.5707 37.4853 52.259L37.483 52.2567Z" fill="white"/>
<path d="M51.4843 34.5803L53.7793 33.0952C55.1582 32.2499 56.5064 32.0657 57.4768 32.8567C58.3717 33.7445 59.3374 34.9534 60.0268 36.1599C60.3078 36.6652 60.832 36.6935 61.2593 36.507C62.0645 36.1221 63.6063 35.1729 64.2202 34.7763C64.801 34.3985 66.4302 33.3006 67.0654 32.7977C67.573 32.3774 67.6462 31.78 67.1291 31.3361C60.3857 24.7391 51.9636 18.3145 46.2662 14.8932C45.9167 14.7067 45.5012 14.702 45.1021 14.8672C44.0491 15.3654 42.5309 16.35 41.6573 16.9143C40.7836 17.4786 39.2654 18.4609 38.4131 19.1975C38.099 19.4927 37.9338 19.8728 37.9928 20.2483C38.7672 26.8996 41.1354 37.1516 44.408 46.0365C44.5803 46.6575 45.1541 46.8369 45.7798 46.5253C46.4669 46.1711 47.7372 45.4415 48.4809 44.9598C49.3545 44.3955 50.8184 43.4015 51.5315 42.8018C51.8786 42.4854 52.0651 41.999 51.7534 41.5126C50.8822 40.3792 50.155 38.9696 49.7536 37.8552C49.5033 36.6888 50.1479 35.4893 51.4866 34.5803H51.4843ZM47.7348 30.7694C46.9084 28.7814 46.1387 26.5289 45.5271 24.3118C45.1824 22.9305 45.6995 22.5952 46.8517 23.4547C48.5919 24.9398 50.3958 26.5241 51.8384 28.1132C52.7687 28.8404 52.5633 29.799 51.3119 30.701L50.3108 31.3479C48.9768 32.12 48.0724 31.9264 47.7348 30.7694Z" fill="white"/>
<path d="M85.0974 28.0594C88.5447 27.4408 90.5186 25.7974 91.5527 22.8366C91.7747 21.8969 92.4027 21.9016 92.5326 22.8555C92.6318 23.6205 92.6932 24.6263 92.7404 25.3205C92.7357 25.9486 93.2575 26.2461 93.8784 26.213C95.4533 26.0477 98.4071 25.5188 99.5617 25.1954C100.161 25.049 100.504 24.5579 100.395 23.951C99.6018 19.5168 98.4803 14.7899 97.3989 10.7216C97.2218 10.1668 96.7685 9.81969 96.1617 9.92594C93.9327 10.3651 91.4913 10.92 89.2695 11.3946C88.5187 11.5693 88.3747 12.2989 88.8115 12.7687C89.5363 13.5385 89.9897 14.3176 90.2399 15.7201C90.7216 18.4095 89.194 20.7966 86.5046 21.2782C83.5107 21.8142 81.015 20.5416 80.1863 15.9185C79.23 10.5752 81.499 7.31453 85.1375 6.66286C88.3959 6.07966 90.6909 6.88008 92.738 8.27315C93.3779 8.78315 94.1523 8.52815 94.065 7.60495C94.0036 6.16938 93.8737 3.26047 93.7415 1.87449C93.7155 1.29129 93.3873 0.764761 92.7947 0.519204C90.2612 -0.0828839 86.7242 -0.191496 83.6548 0.358647C75.4003 1.87685 70.6662 8.62968 72.2623 17.5335C73.823 26.2484 79.3008 29.0983 85.0974 28.0618V28.0594Z" fill="white"/>
<path d="M122.524 28.6057C130.386 30.471 136.57 28.4192 138.702 19.4327C140.827 10.4841 136.787 3.6722 128.887 1.7951C120.977 -0.0442202 114.354 4.19873 112.229 13.1474C110.097 22.1339 114.697 26.7451 122.522 28.6034L122.524 28.6057ZM120.175 14.6774C121.268 10.0709 124.25 7.33903 127.395 8.08515C130.578 8.84071 131.975 12.6138 130.882 17.218C129.78 21.86 127.088 23.0405 124.016 22.3133C120.947 21.5837 119.072 19.3194 120.172 14.6774H120.175Z" fill="white"/>
<path d="M171.193 21.8705C164.717 16.9688 156.937 18.1446 151.35 25.4547C145.74 32.7954 148.064 38.8824 154.455 43.7676C160.877 48.6764 167.361 49.321 172.971 41.9802C178.558 34.6702 177.644 26.8005 171.191 21.8681L171.193 21.8705ZM166.731 36.7739C163.834 40.5659 160.892 40.547 158.384 38.6298C155.877 36.7125 155.086 33.8792 157.985 30.0872C160.861 26.3259 164.698 25.0438 167.267 27.0083C169.866 28.9964 169.607 33.0103 166.731 36.7739Z" fill="white"/>
<path d="M207.451 68.867C207.047 68.0783 206.332 66.7585 205.824 66.0218C205.283 65.2167 204.764 64.7917 203.801 64.938C202.219 65.1411 199.144 65.8896 196.823 66.3406C194.125 66.8104 191.716 67.0914 191.348 66.3713C190.963 65.618 192.531 63.7787 194.597 61.8166C196.236 60.2866 198.663 58.1829 199.737 57.0731C200.436 56.327 200.379 55.7084 200.079 54.7805C199.78 53.9399 199.078 52.4831 198.675 51.6945C198.29 50.9413 197.449 49.4679 196.979 48.7147C196.665 48.2685 196.165 48.0489 195.615 48.2449C190.191 50.1503 180.77 53.7085 172.577 57.6374C171.994 57.9349 171.81 58.504 172.006 59.0541C172.341 59.9631 173.023 61.3869 173.375 62.0716C173.708 62.7233 174.53 64.2486 175.035 64.9829C175.366 65.4622 175.97 65.7149 176.537 65.3843C178.676 63.9889 182.326 61.9937 184.522 60.9595C187.436 59.557 189.24 58.9384 189.535 59.5216C189.92 60.2748 188.262 61.7718 186.401 63.4576C185.242 64.6547 183.91 66.1139 182.735 67.4479C181.575 68.8174 181.12 69.9578 181.769 71.2257C182.418 72.4937 183.521 72.8809 185.414 72.692C187.169 72.4889 189.112 72.3166 190.746 72.0427C193.22 71.5563 195.454 71.0203 195.822 71.7405C196.136 72.3567 194.597 73.405 191.771 74.9776C189.646 76.1487 185.858 77.9549 183.438 78.8876C182.822 79.1166 182.671 79.7565 182.883 80.3397C183.183 81.1802 183.972 82.8094 184.305 83.4611C184.654 84.1458 185.372 85.4657 185.913 86.2708C186.243 86.7501 186.812 86.9343 187.379 86.6014C195.381 82.2971 203.77 76.8027 208.509 73.4735C208.969 73.1075 209.104 72.607 208.927 72.0923C208.591 71.1832 207.838 69.6225 207.453 68.8693L207.451 68.867Z" fill="white"/>
<path d="M69.6933 94.8389C70.1726 92.754 69.7216 90.8131 69.1266 89.6396L66.8316 90.7966C67.063 91.2665 68.9259 95.4669 63.5874 98.5694L64.8789 100.789C66.7041 99.7288 67.913 98.5033 68.6898 97.2472C72.2102 97.88 72.8359 101.743 72.8643 101.918L75.4072 101.549C75.1168 99.5068 73.5466 95.8211 69.6909 94.8389H69.6933Z" fill="white"/>
<path d="M96.8225 114.934L94.2866 115.368C95.5569 122.791 102.628 127.797 110.052 126.527L109.617 123.991C103.592 125.023 97.8519 120.959 96.8201 114.934H96.8225Z" fill="white"/>
<path d="M133.985 73.9393C134.868 73.4624 135.711 72.9311 136.471 72.2984C139.463 69.7979 140.409 66.5018 139.068 63.2552C136.993 58.2378 130.077 54.7268 123.197 55.0881C121.36 52.9961 114.071 46.163 98.6528 48.0023C94.3862 48.5123 90.3251 49.9975 86.5709 52.4224C84.682 51.995 78.6965 51.0033 73.3627 54.0067C69.7219 56.0562 67.1719 59.5176 65.7741 64.2989C63.3209 65.7722 53.3876 72.806 58.3601 87.5394C56.4642 89.9903 55.3237 93.0527 55.3237 96.3842C55.3237 102.927 59.6847 108.464 65.6537 110.258L66.0905 119.327C66.2038 122.9 67.8235 126.29 70.5318 128.625L80.0424 136.83C82.3705 138.842 85.3478 139.947 88.422 139.947H109.467C124.269 139.947 138.117 129.645 140.995 116.496C141.651 113.505 139.973 108.492 139.63 107.522L133.987 73.937L133.985 73.9393ZM125.749 94.5992V93.0456C125.071 93.1566 124.325 93.218 123.539 93.218C120.467 93.218 117.979 92.2877 117.979 91.1402C117.979 89.9927 120.467 89.0647 123.539 89.0647C124.325 89.0647 125.071 89.1285 125.749 89.2371V82.3426H126.639C130.086 82.3426 132.894 85.1476 132.894 88.5949V94.5969H125.751L125.749 94.5992ZM132.892 97.1681V99.0783C132.892 102.526 130.087 105.333 126.637 105.333H120.437C116.989 105.333 114.182 102.528 114.182 99.0783V97.1681H132.889H132.892ZM138.485 115.951C135.897 127.768 122.878 137.383 109.464 137.383H88.422C85.9617 137.383 83.5817 136.497 81.7188 134.89L72.2058 126.685C70.0406 124.817 68.7467 122.104 68.6547 119.228L68.2485 110.787C68.7633 110.844 69.2851 110.874 69.814 110.874C71.5801 110.874 73.3061 110.56 74.9423 109.942L74.0333 107.538C72.7158 108.036 71.3298 108.294 69.9108 108.306C63.7246 108.355 58.7308 104.015 57.9824 97.8765C57.0993 90.6396 62.7471 84.4629 69.814 84.4629C76.3874 84.4629 81.7353 89.8108 81.7353 96.3866H84.3042C84.3042 95.2273 84.1531 94.1081 83.8957 93.0267C84.767 91.3834 87.5036 85.5844 86.8779 78.749C91.2459 78.7088 104.253 78.409 112.428 76.2816C114.253 76.5626 123.966 77.8588 131.565 75.0467L132.781 82.2765C131.191 80.7323 129.026 79.7737 126.639 79.7737H120.439C116.777 79.7737 113.632 82.0144 112.298 85.1972C110.964 82.0144 107.819 79.7737 104.159 79.7737H97.9586C93.0853 79.7737 89.1374 83.7239 89.1374 88.5949V99.0783C89.1374 103.952 93.0876 107.902 97.961 107.902H104.161C107.821 107.902 110.968 105.661 112.3 102.478C112.56 103.097 112.89 103.675 113.278 104.209C113.665 104.743 114.059 105.269 114.373 105.848L116.238 109.288C116.779 110.223 116.493 111.418 115.587 112.005C114.666 112.6 113.419 112.353 112.803 111.451L111.153 109.038L109.032 110.487L110.683 112.9C111.566 114.194 113.02 114.895 114.496 114.895C115.785 114.895 117.088 114.36 118.038 113.219C119.299 111.706 119.324 109.498 118.34 107.791L118.238 107.614C118.944 107.796 119.679 107.904 120.439 107.904H126.639C131.513 107.904 135.463 103.954 135.463 99.083V98.2283L137.116 108.065L137.175 108.287C137.692 109.725 138.936 113.906 138.487 115.953L138.485 115.951ZM103.189 94.5992V92.9866C102.435 93.1282 101.595 93.218 100.693 93.218C97.6233 93.218 95.1324 92.2877 95.1324 91.1402C95.1324 89.9927 97.621 89.0647 100.693 89.0647C101.595 89.0647 102.435 89.1521 103.189 89.2961V82.345H104.159C107.606 82.345 110.411 85.15 110.411 88.5972V94.5992H103.189ZM110.411 97.1681V99.0783C110.411 102.526 107.606 105.333 104.159 105.333H97.9586C94.5114 105.333 91.7064 102.528 91.7064 99.0783V97.1681H110.414H110.411Z" fill="white"/>
</g>
<defs>
<clipPath id="clip0_2022_2215">
<rect width="209" height="139.949" fill="white"/>
</clipPath>
</defs>
</svg>
