<svg width="36" height="36" viewBox="0 0 36 36" fill="none" xmlns="http://www.w3.org/2000/svg">
<g clip-path="url(#clip0_415_49160)">
<path d="M0 0V36H36V0H0ZM4.40622 11.3538C4.40622 7.21648 7.76292 3.85978 11.9003 3.85978C16.0376 3.85978 19.3943 7.21648 19.3943 11.3538C19.3943 15.4911 16.0376 18.8478 11.9003 18.8478C7.76292 18.8478 4.40622 15.4911 4.40622 11.3538ZM24.0954 32.1446C19.9581 32.1446 16.6014 28.7879 16.6014 24.6505C16.6014 20.5132 19.9581 17.1565 24.0954 17.1565C28.2327 17.1565 31.5894 20.5132 31.5894 24.6505C31.5894 28.7879 28.2327 32.1446 24.0954 32.1446Z" fill="black"/>
</g>
<defs>
<clipPath id="clip0_415_49160">
<rect width="36" height="36" fill="white"/>
</clipPath>
</defs>
</svg>
