<svg width="36" height="36" viewBox="0 0 36 36" fill="none" xmlns="http://www.w3.org/2000/svg">
<g clip-path="url(#clip0_415_49141)">
<path d="M18 0C8.06061 0 0 8.06061 0 18C0 27.9394 8.06061 36 18 36C27.9394 36 36 27.9394 36 18C36 8.06061 27.9437 0 18 0ZM18 29C11.9221 29 7 24.0736 7 18C7 11.9264 11.9264 7 18 7C24.0736 7 29 11.9264 29 18C29 24.0736 24.0736 29 18 29Z" fill="black"/>
<path d="M18 11.8047C14.5801 11.8047 11.8052 14.5796 11.8052 17.9995C11.8052 21.4194 14.5801 24.1943 18 24.1943C21.4199 24.1943 24.1948 21.4194 24.1948 17.9995C24.1948 14.5796 21.4199 11.8047 18 11.8047Z" fill="black"/>
</g>
<defs>
<clipPath id="clip0_415_49141">
<rect width="36" height="36" fill="white"/>
</clipPath>
</defs>
</svg>
