<svg width="37" height="36" viewBox="0 0 37 36" fill="none" xmlns="http://www.w3.org/2000/svg">
<g clip-path="url(#clip0_415_49199)">
<path d="M12.7598 5.34009C11.4095 2.04486 9.53401 0 7.45875 0C3.33864 0 0 8.05789 0 18C0 27.9421 3.33864 36 7.45875 36C9.53401 36 11.4095 33.9551 12.7598 30.6599C11.4269 27.4081 10.602 22.9363 10.602 17.9957C10.602 13.055 11.4269 8.58321 12.7598 5.3314V5.34009Z" fill="black"/>
<path d="M23.3228 5.23589C21.9726 2.00145 20.1144 0 18.0652 0C16.016 0 14.1144 2.04486 12.7642 5.34009C14.097 8.59189 14.9219 13.0637 14.9219 18.0043C14.9219 22.945 14.097 27.4124 12.7642 30.6686C14.1144 33.9638 15.9899 36.0087 18.0652 36.0087C20.1404 36.0087 21.9769 34.0072 23.3228 30.7728C21.9639 27.5123 21.1216 22.9971 21.1216 18.0087C21.1216 13.0203 21.9639 8.50506 23.3228 5.24457V5.23589Z" fill="black"/>
<path d="M28.5804 0C26.5268 0 24.6686 2.00145 23.3228 5.23589C24.6817 8.49638 25.5239 13.0116 25.5239 18C25.5239 22.9884 24.6817 27.5036 23.3228 30.7641C24.673 33.9986 26.5311 36 28.5804 36C32.7005 36 36.0391 27.9421 36.0391 18C36.0391 8.05789 32.7005 0 28.5804 0Z" fill="black"/>
</g>
<defs>
<clipPath id="clip0_415_49199">
<rect width="36.0391" height="36" fill="white"/>
</clipPath>
</defs>
</svg>
