<svg width="14" height="13" viewBox="0 0 14 13" fill="none" xmlns="http://www.w3.org/2000/svg">
<path fill-rule="evenodd" clip-rule="evenodd" d="M0.231784 6.72065C0.226743 6.30646 0.558418 5.97479 0.972601 5.97983L13.0101 6.12633C13.4243 6.13137 13.7641 6.47122 13.7692 6.8854C13.7742 7.29959 13.4425 7.63126 13.0283 7.62622L0.990855 7.47972C0.576672 7.47468 0.236824 7.13483 0.231784 6.72065Z" fill="white"/>
<path fill-rule="evenodd" clip-rule="evenodd" d="M13.7692 6.88543C13.7716 7.08433 13.6949 7.27412 13.556 7.41305L8.45984 12.5092C8.17053 12.7985 7.6957 12.7927 7.39926 12.4963C7.10282 12.1998 7.09705 11.725 7.38635 11.4357L11.9587 6.8634L7.27369 2.17843C6.97725 1.88199 6.97147 1.40715 7.26078 1.11785C7.55009 0.82854 8.02492 0.834319 8.32136 1.13076L13.5431 6.35247C13.6854 6.49482 13.7668 6.68653 13.7692 6.88543Z" fill="white"/>
</svg>
