<svg width="20" height="19" viewBox="0 0 20 19" fill="none" xmlns="http://www.w3.org/2000/svg">
<path fill-rule="evenodd" clip-rule="evenodd" d="M5.15491 14.5316C4.85847 14.2423 4.85847 13.7733 5.15491 13.484L13.7703 5.07578C14.0667 4.78647 14.5473 4.78647 14.8438 5.07578C15.1402 5.36508 15.1402 5.83414 14.8438 6.12345L6.2284 14.5316C5.93196 14.821 5.45134 14.821 5.15491 14.5316Z" fill="white"/>
<path fill-rule="evenodd" clip-rule="evenodd" d="M14.8443 5.07657C14.9866 5.2155 15.0666 5.40393 15.0666 5.60041L15.0666 12.8074C15.0666 13.2166 14.7268 13.5483 14.3075 13.5483C13.8883 13.5483 13.5485 13.2166 13.5485 12.8074L13.5485 6.34122L6.92293 6.34122C6.5037 6.34122 6.16385 6.00955 6.16385 5.60041C6.16385 5.19126 6.5037 4.85959 6.92293 4.85959L14.3075 4.85959C14.5089 4.85959 14.7019 4.93764 14.8443 5.07657Z" fill="white"/>
</svg>
