<svg width="24" height="16" viewBox="0 0 24 16" fill="none" xmlns="http://www.w3.org/2000/svg">
<path fill-rule="evenodd" clip-rule="evenodd" d="M0 8C0 7.44772 0.447715 7 1 7H23C23.5523 7 24 7.44772 24 8C24 8.55228 23.5523 9 23 9H1C0.447715 9 0 8.55228 0 8Z" fill="#070A21"/>
<path fill-rule="evenodd" clip-rule="evenodd" d="M0 1C0 0.447715 0.447715 0 1 0H23C23.5523 0 24 0.447715 24 1C24 1.55228 23.5523 2 23 2H1C0.447715 2 0 1.55228 0 1Z" fill="#070A21"/>
<path fill-rule="evenodd" clip-rule="evenodd" d="M0 15C0 14.4477 0.447715 14 1 14H23C23.5523 14 24 14.4477 24 15C24 15.5523 23.5523 16 23 16H1C0.447715 16 0 15.5523 0 15Z" fill="#070A21"/>
</svg>
