<svg width="223" height="215" viewBox="0 0 223 215" fill="none" xmlns="http://www.w3.org/2000/svg">
<g clip-path="url(#clip0_377_4751)">
<path d="M147.262 136.202C160.643 103.332 144.845 65.8384 111.975 52.4571C79.1057 39.0759 41.612 54.8744 28.2308 87.744C14.8496 120.614 30.6481 158.107 63.5177 171.489C96.3873 184.87 133.881 169.071 147.262 136.202Z" fill="white"/>
<path d="M152.209 94.2773L206.616 71.3523" stroke="black" stroke-width="4.99737" stroke-miterlimit="10"/>
<path d="M148.609 136.525C162.186 103.175 146.157 65.1343 112.807 51.5577C79.4579 37.9812 41.4169 54.0102 27.8403 87.3597C14.2638 120.709 30.2929 158.75 63.6423 172.327C96.9917 185.903 135.033 169.874 148.609 136.525Z" stroke="black" stroke-width="4.99737" stroke-miterlimit="10"/>
<path d="M136.283 131.506C147.088 104.964 134.331 74.6886 107.789 63.8834C81.2471 53.0782 50.9713 65.8353 40.1661 92.3772C29.3609 118.919 42.118 149.195 68.6599 160C95.2018 170.805 125.478 158.048 136.283 131.506Z" stroke="black" stroke-width="4.99737" stroke-miterlimit="10"/>
<path d="M165.339 84.1328L169.297 93.5275C171.799 99.4634 178.638 102.248 184.574 99.7466L208.762 89.5546C214.698 87.0534 217.483 80.2138 214.981 74.2779L211.023 64.8832C208.522 58.9473 201.682 56.1629 195.746 58.664L171.558 68.856C165.622 71.3572 162.838 78.1968 165.339 84.1328Z" fill="black"/>
<path d="M73.8152 86.456L61.8843 97C55.1773 102.927 54.5453 113.17 60.4726 119.877L77.2789 138.893C83.2062 145.6 93.4483 146.232 100.155 140.305L112.086 129.761C118.793 123.834 119.425 113.592 113.498 106.885L96.6917 87.8677C90.7644 81.1608 80.5222 80.5287 73.8152 86.456Z" stroke="black" stroke-width="4.99737" stroke-miterlimit="10"/>
<path d="M74.2998 87.9119L67.9566 93.5226C67.1915 94.1989 67.1201 95.3735 67.7964 96.1386L76.2003 105.653C76.922 106.469 78.211 106.504 78.9455 105.699C79.68 104.894 80.4427 104.142 81.2953 103.394C86.6351 98.6778 92.483 96.5677 94.3575 98.6922C96.2319 100.817 93.4284 106.358 88.0856 111.081C87.2301 111.836 86.3722 112.516 85.509 113.128C84.6458 113.739 84.4979 115.041 85.2196 115.857L86.2703 117.049C86.9466 117.814 88.1212 117.885 88.8863 117.209L106.183 101.921C106.949 101.245 107.02 100.07 106.344 99.305L97.5469 89.3488C91.5237 82.5304 81.1153 81.8958 74.307 87.9148L74.2998 87.9119Z" fill="black"/>
<path d="M73.5293 133.479L108.604 102.476" stroke="black" stroke-width="4.99737" stroke-miterlimit="10"/>
</g>
<defs>
<clipPath id="clip0_377_4751">
<rect width="161" height="174.316" fill="white" transform="translate(0 149.117) rotate(-67.8488)"/>
</clipPath>
</defs>
</svg>
