<svg width="199" height="177" viewBox="0 0 199 177" fill="none" xmlns="http://www.w3.org/2000/svg">
<g clip-path="url(#clip0_431_7187)">
<path d="M59.6336 120.521L47.1031 118.156C42.2893 117.247 37.5173 119.898 35.7485 124.467L34.5959 127.429L34.3626 133.014L66.294 140.218L65.9873 127.735L59.6421 120.526L59.6336 120.521Z" fill="white"/>
<path d="M68.6784 143.128L68.2696 126.827L60.841 118.391L47.5217 115.876C41.6165 114.761 35.7453 118.019 33.5711 123.625L32.2806 126.943L31.942 134.845L68.6644 143.131L68.6784 143.128ZM63.6788 128.625L63.8918 137.295L36.7514 131.173L36.8877 127.91L37.9024 125.304C39.2673 121.781 42.9541 119.731 46.6695 120.437L58.4197 122.657L63.6802 128.632L63.6788 128.625Z" fill="black"/>
<path d="M92.6673 119.815C73.4878 123.768 54.7356 111.424 50.7829 92.2444C46.8303 73.0649 59.1741 54.3126 78.3535 50.36C97.533 46.4074 116.285 58.7512 120.238 77.9306C124.191 97.1101 111.847 115.862 92.6673 119.815Z" fill="black"/>
<path d="M89.4161 104.042C78.9483 106.199 68.7136 99.4623 66.5563 88.9944C64.399 78.5266 71.1361 68.2919 81.6039 66.1346C92.0718 63.9773 102.306 70.7144 104.464 81.1822C106.621 91.6501 99.884 101.885 89.4161 104.042Z" fill="white"/>
<path d="M53.9326 131.426L34.601 127.417C29.5779 126.376 24.6493 129.541 23.5002 134.535C22.7624 137.602 24.5691 140.712 27.604 141.58L90.0745 153.863C92.9452 154.43 95.9202 153.911 98.4319 152.418L141.299 134.134L138.258 104.386C138.258 104.386 124.222 96.1684 109.42 99.219C94.6177 102.27 89.9418 112.493 89.9418 112.493L65.8652 117.455C65.8652 117.455 49.6861 120.789 54.1612 136.529L95.0109 128.111" fill="white"/>
<path d="M95.2233 156.118C96.705 155.812 98.1446 155.268 99.478 154.491L143.778 135.591L140.435 102.97L139.417 102.378C138.812 102.022 124.438 93.7499 108.943 96.943C95.9161 99.6278 90.1391 107.514 88.4097 110.435L65.3885 115.179C65.053 115.248 57.1127 116.95 53.1817 123.436C52.2295 125.002 51.5956 126.699 51.2844 128.512L35.0661 125.151C28.8618 123.858 22.6519 127.841 21.2368 134.019C20.208 138.289 22.7214 142.602 26.9646 143.818L27.1566 143.866L89.6271 156.149C91.4947 156.515 93.3937 156.502 95.2178 156.126L95.2233 156.118ZM138.819 132.671L97.3784 150.348L97.2417 150.427C95.2167 151.631 92.8331 152.05 90.5241 151.593L28.1601 139.332C26.3614 138.77 25.3108 136.924 25.7548 135.084C26.6187 131.322 30.3775 128.915 34.1298 129.694L51.1552 133.223C51.2857 134.493 51.5411 135.803 51.9297 137.158L52.517 139.23L95.4773 130.376L94.5411 125.834L55.9138 133.794C55.3991 130.731 55.8118 128.067 57.1354 125.863C59.9961 121.114 66.2688 119.733 66.3386 119.719L91.5543 114.522L92.0407 113.453C92.0407 113.453 93.1564 111.125 95.9022 108.505C99.5665 105.003 104.276 102.648 109.881 101.493C121.42 99.1148 132.701 104.148 136.068 105.852L138.812 132.673L138.819 132.671Z" fill="black"/>
<path d="M138.995 132.34L133.134 104.274C130.721 92.7198 138.132 81.3977 149.686 78.985L162.908 76.2239C174.462 73.8112 185.785 81.2217 188.197 92.7756L194.058 120.841C196.47 132.395 189.06 143.718 177.506 146.13L164.283 148.891C152.73 151.304 141.407 143.893 138.995 132.34Z" fill="black"/>
<path d="M151.93 132.192L151.251 128.864C150.955 127.416 151.89 126.003 153.338 125.707L157.994 124.757C159.442 124.461 160.855 125.396 161.151 126.844L161.83 130.172C162.126 131.62 161.191 133.033 159.743 133.328L155.087 134.279C153.639 134.574 152.226 133.64 151.93 132.192Z" fill="white"/>
<path d="M172.206 128.247L171.527 124.919C171.232 123.471 172.166 122.057 173.614 121.762L178.27 120.811C179.718 120.516 181.132 121.45 181.427 122.898L182.107 126.226C182.402 127.674 181.468 129.088 180.02 129.383L175.363 130.333C173.915 130.629 172.502 129.695 172.206 128.247Z" fill="white"/>
<path d="M69.6439 20.507L74.0469 19.5996L78.2958 40.2167L73.8928 41.1241L69.6439 20.507Z" fill="black"/>
<path d="M56.8275 30.1925L61.2305 29.2852L65.4794 49.9022L61.0764 50.8096L56.8275 30.1925Z" fill="black"/>
<path d="M86.0345 24.175L90.4375 23.2676L94.6864 43.8846L90.2834 44.792L86.0345 24.175Z" fill="black"/>
</g>
<defs>
<clipPath id="clip0_431_7187">
<rect width="172.705" height="144.848" fill="white" transform="matrix(-0.979418 0.201845 0.201845 0.979418 169.15 0)"/>
</clipPath>
</defs>
</svg>
