<svg width="202" height="182" viewBox="0 0 202 182" fill="none" xmlns="http://www.w3.org/2000/svg">
<g clip-path="url(#clip0_431_7217)">
<path d="M171.891 38.6789L65.1121 10.0676C50.4643 6.14268 35.4081 14.8354 31.4832 29.4832L9.92594 109.936C6.00106 124.584 14.6937 139.64 29.3416 143.565L136.121 172.176C150.769 176.101 165.825 167.409 169.75 152.761L191.307 72.3079C195.232 57.66 186.539 42.6038 171.891 38.6789Z" fill="white"/>
<path d="M176.908 37.5183L61.1286 6.49533C47.7616 2.91366 33.9761 10.8661 30.3945 24.2331L6.49283 113.435C2.91115 126.802 10.8735 140.582 24.2405 144.164L140.02 175.187C153.379 178.766 167.164 170.814 170.746 157.447L194.648 68.2446C198.229 54.8776 190.267 41.0979 176.908 37.5183ZM130.637 41.8332L177.606 54.4185L176.241 59.5144L129.272 46.9291L130.637 41.8332ZM86.2074 27.5503C89.0298 28.3065 90.7077 31.2013 89.9515 34.0237C89.1952 36.846 86.2926 38.5219 83.4702 37.7656C80.6479 37.0094 78.972 34.1067 79.7283 31.2844C80.4845 28.462 83.3851 26.794 86.2074 27.5503ZM70.4571 23.33C73.2795 24.0862 74.9496 26.9789 74.1933 29.8013C73.4371 32.6237 70.5423 34.3016 67.7199 33.5454C64.8975 32.7891 63.2217 29.8865 63.9779 27.0641C64.7342 24.2418 67.6347 22.5737 70.4571 23.33ZM54.7068 19.1097C57.5213 19.8639 59.1992 22.7587 58.443 25.581C57.6867 28.4034 54.7841 30.0792 51.9696 29.3251C49.1551 28.5709 47.4714 25.6662 48.2276 22.8438C48.9839 20.0215 51.8844 18.3535 54.7068 19.1097ZM165.65 156.081C162.823 166.634 151.938 172.918 141.385 170.091L25.6059 139.068C15.0535 136.24 8.76122 125.353 11.5887 114.801L32.1482 38.0718L186.21 79.3524L165.65 156.081Z" fill="black"/>
<path d="M70.2201 132.595L70.1574 132.578L53.9435 128.175C48.8518 126.794 44.6051 123.513 41.9829 118.937C39.3606 114.361 38.6785 109.036 40.0596 103.944L47.0781 78.0954C48.4592 73.0037 51.7398 68.757 56.3161 66.1348C60.8725 63.524 66.1743 62.8355 71.2467 64.1947L71.3094 64.2115L87.5233 68.6148C98.036 71.4652 104.263 82.3433 101.405 92.8539L94.3866 118.702C91.5424 129.192 80.7077 135.414 70.218 132.603L70.2201 132.595ZM71.5385 127.487L71.5855 127.499C75.3016 128.495 79.1847 127.989 82.5284 126.079C85.8841 124.155 88.2892 121.043 89.2969 117.313L96.3155 91.465C98.404 83.7647 93.8424 75.795 86.1343 73.7044L69.9204 69.3011L69.8734 69.2885C66.1573 68.2927 62.2742 68.7984 58.9305 70.709C55.5748 72.6331 53.1697 75.7447 52.162 79.4744L45.1435 105.323C44.1279 109.05 44.6272 112.957 46.5514 116.313C48.4755 119.669 51.5871 122.074 55.3168 123.081L71.5306 127.485L71.5385 127.487Z" fill="black"/>
<path d="M85.8363 72.4323L77.2052 70.086C76.1625 69.8066 75.091 70.4186 74.8038 71.4592L71.2963 84.3924C70.998 85.5056 71.7051 86.6614 72.8499 86.8421C73.9946 87.0228 75.0891 87.2657 76.2494 87.5766C83.5107 89.5474 88.7583 93.4827 87.9774 96.3657C87.1965 99.2487 80.6791 99.9896 73.4179 98.0187C72.2576 97.7078 71.1554 97.3369 70.1128 96.9315C69.0703 96.5261 67.8372 97.1452 67.5389 98.2584L67.1062 99.8735C66.819 100.914 67.4309 101.986 68.4715 102.273L91.9937 108.66C93.0364 108.939 94.1079 108.327 94.3951 107.286L98.0721 93.7516C100.589 84.4855 95.1146 74.9352 85.8484 72.4188L85.8363 72.4323Z" fill="black"/>
<path d="M45.8931 95.6489L44.5107 100.74L92.2051 113.69L93.5874 108.598L45.8931 95.6489Z" fill="black"/>
<path d="M121.91 147.445L121.847 147.428L105.633 143.025C95.1203 140.174 88.8929 129.296 91.7491 118.793L98.7676 92.945C100.149 87.8533 103.429 83.6066 108.006 80.9844C112.562 78.3736 117.864 77.6851 122.936 79.0443L122.999 79.0611L139.213 83.4644C144.304 84.8455 148.551 88.1261 151.173 92.7024C153.796 97.2787 154.478 102.604 153.097 107.696L146.078 133.544C144.697 138.636 141.416 142.883 136.84 145.505C132.284 148.116 126.982 148.804 121.91 147.445ZM123.228 142.336L123.275 142.349C126.991 143.345 130.874 142.839 134.218 140.928C137.574 139.004 139.979 135.893 140.986 132.163L148.005 106.315C150.093 98.6143 145.532 90.6446 137.824 88.554L121.61 84.1507L121.563 84.1381C117.847 83.1424 113.964 83.648 110.62 85.5586C107.264 87.4828 104.859 90.5944 103.851 94.324L96.833 120.173C95.8174 123.9 96.3245 127.809 98.2408 131.162C100.165 134.518 103.277 136.923 107.006 137.931L123.22 142.334L123.228 142.336Z" fill="black"/>
<path d="M137.524 87.2898L128.893 84.9435C127.85 84.6641 126.779 85.2761 126.491 86.3167L122.984 99.2498C122.686 100.363 123.393 101.519 124.537 101.7C125.682 101.88 126.777 102.123 127.937 102.434C135.198 104.405 140.446 108.34 139.665 111.223C138.884 114.106 132.367 114.847 125.105 112.876C123.945 112.565 122.843 112.194 121.8 111.789C120.758 111.383 119.525 112.003 119.226 113.116L118.794 114.731C118.506 115.771 119.118 116.843 120.159 117.13L143.681 123.517C144.724 123.796 145.795 123.184 146.083 122.144L149.76 108.609C152.276 99.3429 146.802 89.7927 137.536 87.2762L137.524 87.2898Z" fill="black"/>
<path d="M97.5737 110.5L96.1914 115.592L143.886 128.541L145.268 123.45L97.5737 110.5Z" fill="black"/>
</g>
<defs>
<clipPath id="clip0_431_7217">
<rect width="170.048" height="142.525" fill="white" transform="translate(36.8877) rotate(15)"/>
</clipPath>
</defs>
</svg>
