<svg width="32" height="32" viewBox="0 0 32 32" fill="none" xmlns="http://www.w3.org/2000/svg">
<g clip-path="url(#clip0_2022_2257)">
<path d="M16 0C7.16043 0 0 7.16043 0 16C0 24.8396 7.16043 32 16 32C24.8396 32 32 24.8396 32 16C32 7.16043 24.8396 0 16 0ZM8.84922 8.80097H23.1508C23.3438 8.80097 23.5368 8.82992 23.7201 8.87817C23.6912 8.89747 23.6719 8.91677 23.6429 8.94572L17.2545 16.193C16.9361 16.5597 16.4922 16.7624 16 16.7624C15.5078 16.7624 15.0639 16.5597 14.7455 16.193L8.28951 8.86852C8.46321 8.82026 8.65621 8.79131 8.84922 8.79131V8.80097ZM25.3607 19.3197C25.3607 21.462 23.6236 23.2087 21.4717 23.2087H10.5283C8.38601 23.2087 6.63932 21.4717 6.63932 19.3197V11.0109C6.63932 10.7021 6.70688 10.4125 6.81303 10.1423L13.2786 17.4861C13.9638 18.2678 14.9481 18.7117 15.9903 18.7117C17.0229 18.7117 18.0169 18.2678 18.702 17.4861L25.0905 10.2388C25.0905 10.2388 25.1387 10.1713 25.1677 10.1327C25.2835 10.4029 25.351 10.7021 25.351 11.0109V19.3197H25.3607Z" fill="currentColor"/>
</g>
<defs>
<clipPath id="clip0_2022_2257">
<rect width="32" height="32" fill="currentColor"/>
</clipPath>
</defs>
</svg>
