<svg width="32" height="32" viewBox="0 0 32 32" fill="none" xmlns="http://www.w3.org/2000/svg">
<g clip-path="url(#clip0_2022_2255)">
<path d="M16 0C7.16576 0 0 7.16576 0 16C0 24.8342 7.16576 32 16 32C24.8342 32 32 24.8342 32 16C32 7.16576 24.8342 0 16 0ZM11.4093 23.3394H7.9566V12.2483H11.4093V23.3394ZM9.68294 10.7342C8.57384 10.7342 7.67691 9.83725 7.67691 8.73779C7.67691 7.63834 8.57384 6.74141 9.68294 6.74141C10.792 6.74141 11.6793 7.63834 11.6793 8.73779C11.6793 9.83725 10.7824 10.7342 9.68294 10.7342ZM24.3231 23.3394H20.88V17.9482C20.88 16.6558 20.8511 15.0066 19.0862 15.0066C17.3213 15.0066 17.0127 16.4051 17.0127 17.8517V23.3394H13.5696V12.2483H16.8776V13.7625H16.9259C17.3888 12.8849 18.5075 11.9687 20.1953 11.9687C23.6866 11.9687 24.3327 14.264 24.3327 17.2538V23.3394H24.3231Z" fill="currentColor"/>
</g>
<defs>
<clipPath id="clip0_2022_2255">
<rect width="32" height="32" fill="currentColor"/>
</clipPath>
</defs>
</svg>
