<svg width="33" height="32" viewBox="0 0 33 32" fill="none" xmlns="http://www.w3.org/2000/svg">
<path d="M17.0422 21.4238H15.0253C14.4077 21.4238 13.9155 21.916 13.9155 22.5336C13.9155 23.1512 14.4077 23.6434 15.0253 23.6434H17.0422C17.6598 23.6434 18.152 23.1512 18.152 22.5336C18.152 21.916 17.6598 21.4238 17.0422 21.4238Z" fill="currentColor"/>
<path d="M17 0C8.16043 0 1 7.16043 1 16C1 24.8396 8.16043 32 17 32C25.8396 32 33 24.8396 33 16C33 7.16043 25.8396 0 17 0ZM23.4463 20.0724V23.1508C23.4463 24.4246 22.4138 25.4668 21.1303 25.4668H12.9276C11.6538 25.4668 10.6116 24.4343 10.6116 23.1508V8.84922C10.6116 7.57539 11.6441 6.53317 12.9276 6.53317H21.1303C22.4041 6.53317 23.4463 7.56574 23.4463 8.84922V20.0724Z" fill="currentColor"/>
</svg>
