<svg width="14" height="13" viewBox="0 0 14 13" fill="none" xmlns="http://www.w3.org/2000/svg">
<path fill-rule="evenodd" clip-rule="evenodd" d="M13.7682 6.27935C13.7733 6.69354 13.4416 7.02521 13.0274 7.02017L0.989909 6.87367C0.575726 6.86863 0.235878 6.52878 0.230837 6.11459C0.225796 5.70041 0.557472 5.36874 0.971654 5.37378L13.0091 5.52028C13.4233 5.52532 13.7632 5.86517 13.7682 6.27935Z" fill="white"/>
<path fill-rule="evenodd" clip-rule="evenodd" d="M0.230821 6.11457C0.2284 5.91567 0.305091 5.72588 0.444021 5.58695L5.54016 0.490815C5.82947 0.201507 6.3043 0.207286 6.60074 0.503723C6.89718 0.800158 6.90296 1.275 6.61365 1.5643L2.04135 6.1366L6.72631 10.8216C7.02275 11.118 7.02853 11.5928 6.73922 11.8822C6.44991 12.1715 5.97508 12.1657 5.67864 11.8692L0.456928 6.64753C0.314575 6.50518 0.233242 6.31347 0.230821 6.11457Z" fill="white"/>
</svg>
