<svg width="277" height="173" viewBox="0 0 277 173" fill="none" xmlns="http://www.w3.org/2000/svg">
<g clip-path="url(#clip0_431_2744)">
<path d="M54.2748 21.7916L94.2553 44.7956L124.365 39.719L137.769 49.3499L160.223 42.2198L183.364 57.7299L200.137 57.2462L236.091 30.7455L264.73 82.0283L192.492 115.546L201.853 127.43L198.386 138.893L188.62 139.434L180.975 149.45L173.992 149.001L173.003 158.286L161.126 161.411L152.414 151.513L148.043 159.019L137.42 160.674L131.743 152.129L118.454 159.062L107.954 146.712L98.7938 143.786L94.9788 136.529L85.8284 133.604L80.9741 124.336L73.6749 122.699L69.1119 115.011L74.5394 103.292L13.2362 51.461L28.0306 33.3422L54.2748 21.7916Z" fill="white"/>
<path d="M269.907 64.5658L258.832 41.7131C251.381 26.3426 232.889 19.9318 217.529 27.373L211.338 30.3775C201.316 35.2248 195.107 44.7845 194.072 55.0905C191.896 55.6538 189.862 55.761 187.973 55.3811C183.664 54.525 180.517 51.3548 177.186 47.9867C173.126 43.8994 168.533 39.2608 161.334 38.7982L161.241 38.7923C158.491 38.6258 155.71 39.0883 152.93 40.192C148.799 41.881 144.638 43.5475 140.468 45.1927C126.903 32.5938 116.037 35.7632 103.506 39.4254L101.472 40.0083C96.5935 41.4218 92.8225 41.3656 90.0656 40.8162C90.8555 31.2597 87.1917 21.4895 79.3497 14.7807L74.1148 10.3077C61.1356 -0.785071 41.6266 0.74307 30.5338 13.7223L14.0288 33.0342C2.9367 46.0031 4.46418 65.5225 17.4434 76.6153L22.6686 81.0773C30.717 87.9545 41.28 89.9777 50.7921 87.4348L70.8994 105.563L68.9584 107.444C64.7333 111.558 64.639 118.335 68.7516 122.571L70.7886 124.667C72.6509 126.586 75.1119 127.716 77.7587 127.886C77.9441 127.898 78.1198 127.899 78.3052 127.911C78.6155 127.91 78.9258 127.909 79.2381 127.878C79.4722 130.189 80.4551 132.434 82.1914 134.221L84.2387 136.317C86.1594 138.292 88.6547 139.372 91.2088 139.536C91.7443 139.571 92.2928 139.565 92.8234 139.516C93.2086 141.568 94.1838 143.451 95.6675 144.983L97.7148 147.08C99.5771 148.999 102.038 150.129 104.685 150.299C104.86 150.31 105.046 150.312 105.231 150.324C105.872 150.334 106.496 150.281 107.112 150.186C107.341 152.58 108.377 154.797 110.074 156.551L112.121 158.657C114.042 160.632 116.538 161.702 119.092 161.866C122.006 162.054 124.987 161.056 127.237 158.863L130.369 155.828L134.069 160.047C136.175 162.52 139.19 164.037 142.404 164.243C142.579 164.255 142.764 164.267 142.94 164.268C146.183 164.331 149.212 163.068 151.269 160.821C152.026 159.991 152.634 159.058 153.069 158.073L154.717 159.947C156.796 162.842 160.003 164.754 163.542 165.209C163.829 165.248 164.106 165.276 164.384 165.294C167.577 165.499 170.67 164.509 173.011 162.529C175.613 160.328 177.14 157.013 177.194 153.428C177.328 153.447 177.451 153.455 177.585 153.464C177.781 153.476 177.966 153.488 178.162 153.491C181.571 153.555 184.779 152.23 186.948 149.857C188.695 147.942 189.667 145.533 189.848 143.042C190.328 143.135 190.81 143.197 191.304 143.228L191.397 143.234C195.146 143.475 198.724 142.185 201.232 139.678C203.553 137.366 204.873 134.038 204.849 130.552C204.817 126.868 203.353 123.423 200.717 120.824L197.315 116.965L217.489 105.883C226.433 112.507 238.671 114.059 249.377 108.862L255.567 105.868C270.938 98.4175 277.348 79.9356 269.907 64.5658ZM32.6817 54.9675L30.8391 57.2483C29.4914 58.9094 27.0447 59.1658 25.3836 57.8181L21.8152 54.931C20.1541 53.5833 19.897 51.1469 21.2447 49.4858L23.0983 47.1953C24.446 45.5343 26.8824 45.2772 28.5435 46.6249L32.1119 49.5119C33.773 50.8597 34.0301 53.2961 32.6817 54.9675ZM52.5529 70.4949L50.6993 72.7854C49.3619 74.4471 46.9152 74.7035 45.2541 73.3558L41.6857 70.4688C40.0246 69.1211 39.7675 66.6846 41.1159 65.0132L42.9688 62.7331C44.3062 61.0714 46.7529 60.8149 48.414 62.1626L51.9824 65.0497C53.6435 66.3974 53.9006 68.8338 52.5529 70.4949ZM81.239 120.074C80.4678 120.811 79.4699 121.212 78.4058 121.195C77.3314 121.178 76.3453 120.753 75.598 119.991L73.5506 117.895C72.8142 117.123 72.413 116.126 72.4297 115.061C72.4464 113.997 72.8723 113.001 73.6339 112.254L83.8806 102.302C84.6422 101.554 85.6504 101.154 86.7145 101.171L86.9102 101.183C87.8989 101.247 88.8129 101.667 89.5114 102.384L91.5587 104.481C93.0913 106.058 93.0528 108.589 91.4761 110.112L81.239 120.074ZM94.6788 131.724C94.4802 131.918 94.2733 132.081 94.0477 132.211L94.0374 132.21C92.4726 133.227 90.3866 133.02 89.0481 131.642L87.0007 129.545C85.4682 127.968 85.5067 125.437 87.0834 123.914L107.49 104.078C109.057 102.544 111.589 102.573 113.121 104.15L115.168 106.257C115.905 107.017 116.305 108.026 116.289 109.09C116.285 109.472 116.22 109.84 116.114 110.195C115.918 110.834 115.571 111.412 115.085 111.887L94.6788 131.724ZM108.155 142.487C107.394 143.224 106.386 143.625 105.322 143.608C104.258 143.591 103.261 143.165 102.524 142.404L100.477 140.308C99.7404 139.537 99.3399 138.528 99.3559 137.475C99.3598 137.092 99.4248 136.724 99.5304 136.369C99.531 136.359 99.5413 136.359 99.5413 136.359C99.7272 135.72 100.075 135.142 100.56 134.667L121.717 114.103L121.718 114.082L123.062 112.793C124.639 111.271 127.161 111.298 128.693 112.876L130.74 114.982C131.477 115.743 131.877 116.751 131.861 117.816C131.844 118.88 131.419 119.866 130.657 120.613L108.155 142.487ZM134.187 142.764L122.562 154.054C120.984 155.587 118.463 155.559 116.93 153.982L114.884 151.875C114.147 151.114 113.746 150.106 113.763 149.042C113.769 147.977 114.205 146.981 114.966 146.244L126.582 134.943C127.431 134.129 128.541 133.755 129.622 133.825C130.569 133.886 131.505 134.287 132.223 135.026L134.26 137.122C135.793 138.699 135.754 141.231 134.187 142.764ZM146.317 156.294C145.56 157.125 144.383 157.587 143.071 157.554C141.573 157.53 140.169 156.861 139.15 155.658L135.19 151.143L138.863 147.573C139.8 146.661 140.551 145.603 141.08 144.448L145.803 149.808L146.13 150.191L146.265 150.345C147.761 152.333 147.551 154.946 146.317 156.294ZM198.144 130.607C198.149 132.303 197.551 133.878 196.491 134.927C195.352 136.074 193.65 136.657 191.827 136.54L191.775 136.537C190.047 136.405 188.43 135.65 187.227 134.424C187.013 134.214 186.81 133.984 186.619 133.734L180.404 126.654L163.289 107.177L158.258 111.611L181.348 137.873L181.445 137.972L181.522 138.06C181.707 138.248 181.869 138.454 182.011 138.66C182.021 138.661 182.031 138.672 182.03 138.682C183.645 140.916 183.376 143.815 181.996 145.329C181.129 146.277 179.771 146.81 178.283 146.787C176.91 146.75 175.598 146.242 174.54 145.326C174.541 145.316 174.541 145.316 174.541 145.316C174.131 144.772 173.658 144.256 173.151 143.778L150.948 118.184L145.888 122.574L163.074 142.386L163.009 142.444L168.791 149.021C169.002 149.272 169.225 149.514 169.457 149.756C169.457 149.756 169.464 149.76 169.477 149.768C170.166 150.795 170.521 152.027 170.502 153.298C170.477 154.962 169.812 156.46 168.685 157.421C167.581 158.354 166.034 158.771 164.424 158.564C162.66 158.327 161.127 157.401 160.114 155.95L151.48 146.119L151.431 146.064L145.226 138.995L134.24 126.5L135.343 125.423C137.394 123.435 138.538 120.758 138.577 117.906C138.626 115.055 137.548 112.348 135.559 110.307L133.513 108.201C131.525 106.149 128.849 104.985 125.995 104.967C124.766 104.95 123.554 105.141 122.423 105.523C121.917 104.064 121.093 102.728 119.987 101.582L117.941 99.475C113.828 95.2499 107.05 95.1556 102.825 99.2689L98.6549 103.324C98.1486 102.029 97.3769 100.842 96.3784 99.806L94.331 97.7096C92.3429 95.6583 89.6559 94.5032 86.8145 94.4654C83.9627 94.4269 81.2564 95.5043 79.2154 97.4931L75.73 100.878L57.7244 84.6434C60.8767 82.9018 63.777 80.5752 66.2593 77.6737L82.7746 58.3624C85.6045 55.0385 87.6132 51.2999 88.8168 47.3751C92.5222 48.1303 97.3587 48.1826 103.343 46.4575L105.388 45.865C116.675 42.5675 123.937 40.4488 133.423 47.9665C128.756 49.7865 124.11 51.5873 119.529 53.3509C108.543 57.5984 97.1954 61.9882 86.0015 66.5637L85.8636 66.6169C81.7492 68.5242 76.9109 71.3984 75.9894 76.727C75.0379 82.1986 79.2731 86.2971 80.5966 87.4266C86.6163 92.5602 97.2125 91.814 108.27 85.4924C111.589 84.0614 119.971 81.2391 129.644 84.2392C137.461 86.6651 142.348 91.7361 144.566 94.5468L144.729 94.7434C147.378 97.6128 153.058 102.569 161.329 103.566C161.791 103.617 162.254 103.657 162.707 103.686C166.858 103.953 170.981 103.194 174.821 101.527L195.772 125.356L195.966 125.555C197.359 126.895 198.133 128.693 198.155 130.607L198.144 130.607ZM192.776 111.792L180.739 98.1123C184.442 95.3616 187.677 91.6915 190.123 87.2674L184.25 84.0254C179.43 92.7334 170.545 97.9122 162.119 96.9054C156.065 96.1751 151.783 92.4769 149.732 90.2768C146.995 86.8434 141.067 80.7643 131.617 77.8405C119.643 74.1134 109.288 77.7087 105.393 79.4232L105.072 79.5887C96.7485 84.39 88.6533 85.4831 84.9374 82.3177C84.6629 82.0829 82.2255 79.9407 82.5865 77.8646C82.7699 76.7802 83.604 75.0654 88.6036 72.7393C99.7125 68.1997 111.007 63.8272 121.94 59.6073C132.917 55.3591 144.274 50.97 155.426 46.4125C157.251 45.6921 159.08 45.3857 160.852 45.4892L160.904 45.4925C165.559 45.7916 168.735 48.9947 172.416 52.706C176.135 56.4611 180.351 60.7031 186.661 61.9567C189.061 62.4314 191.564 62.4268 194.138 61.9511C194.537 65.2446 195.484 68.5217 197.009 71.6704L208.084 94.5334C209.243 96.9347 210.685 99.1164 212.339 101.063L192.776 111.792ZM218.363 61.543L214.278 63.6486C212.384 64.6335 210.043 63.8936 209.058 61.9895L207.716 59.38C206.732 57.4863 207.471 55.1449 209.365 54.1601L213.451 52.0545C215.345 51.0696 217.686 51.8096 218.671 53.7033L220.023 56.3238C221.007 58.2175 220.257 60.5582 218.363 61.543ZM240.561 49.5567L236.475 51.6726C234.581 52.6574 232.24 51.9072 231.256 50.0135L229.903 47.4033C228.929 45.4999 229.668 43.1689 231.562 42.184L235.649 40.0681C237.542 39.0833 239.883 39.8335 240.868 41.7272L242.22 44.3374C243.204 46.2415 242.455 48.5718 240.561 49.5567Z" fill="black"/>
<path d="M181.522 138.06L181.445 137.972L181.348 137.873C181.558 138.145 181.788 138.418 182.011 138.66C181.869 138.455 181.706 138.248 181.522 138.06Z" fill="black"/>
</g>
<defs>
<clipPath id="clip0_431_2744">
<rect width="267.57" height="155.411" fill="white" transform="translate(9.9668) rotate(3.67692)"/>
</clipPath>
</defs>
</svg>
