<svg width="168" height="174" viewBox="0 0 168 174" fill="none" xmlns="http://www.w3.org/2000/svg">
<g clip-path="url(#clip0_431_7245)">
<path d="M109.48 122.505L106.646 126.482L156.827 162.223L159.66 158.245L109.48 122.505Z" fill="black"/>
<path d="M63.7256 146.346C98.9121 146.346 127.436 117.821 127.436 82.6348C127.436 47.4482 98.9121 18.9238 63.7256 18.9238C28.539 18.9238 0.0146484 47.4482 0.0146484 82.6348C0.0146484 117.821 28.539 146.346 63.7256 146.346Z" fill="black"/>
<path d="M63.7253 133.341C91.7293 133.341 114.431 110.639 114.431 82.6355C114.431 54.6314 91.7293 31.9297 63.7253 31.9297C35.7213 31.9297 13.0195 54.6314 13.0195 82.6355C13.0195 110.639 35.7213 133.341 63.7253 133.341Z" fill="white"/>
<path d="M126.432 132.481L120.652 140.596C117 145.723 118.196 152.839 123.323 156.491L144.216 171.371C149.343 175.023 156.459 173.827 160.111 168.7L165.89 160.585C169.542 155.458 168.346 148.342 163.219 144.69L142.327 129.81C137.2 126.158 130.083 127.354 126.432 132.481Z" fill="black"/>
<path d="M65.874 119.975C64.1235 119.975 62.3504 119.72 60.5848 119.187L45.7014 114.679C41.0283 113.266 37.1816 110.111 34.875 105.806C32.5685 101.501 32.0802 96.5572 33.4926 91.884L40.6751 68.1577C43.5977 58.5109 53.823 53.0339 63.4698 55.9565L78.3532 60.4643C83.0264 61.8768 86.8731 65.0323 89.1796 69.3373C91.4861 73.6423 91.9745 78.5859 90.562 83.259L83.3795 106.985C80.9903 114.874 73.7177 119.975 65.874 119.975ZM62.0048 114.513C69.0821 116.655 76.5726 112.643 78.7139 105.573L85.8964 81.8465C86.9332 78.4206 86.5726 74.7993 84.8821 71.6438C83.1917 68.4883 80.3743 66.1818 76.9483 65.145L62.0649 60.6371C54.9951 58.5034 47.497 62.5079 45.3558 69.5777L38.1733 93.304C37.1365 96.73 37.4971 100.351 39.1876 103.507C40.878 106.662 43.6954 108.969 47.1214 110.006L62.0048 114.513Z" fill="black"/>
<path d="M76.7003 63.9568L68.7815 61.5601C67.8274 61.2671 66.8131 61.808 66.5276 62.7697L62.9364 74.6479C62.6283 75.6696 63.2594 76.759 64.3037 76.9544C65.3481 77.1497 66.3623 77.4052 67.4292 77.7282C74.0933 79.7417 78.8491 83.5283 78.0452 86.1729C77.2413 88.8175 71.1932 89.3284 64.5291 87.3149C63.4623 86.9919 62.448 86.6237 61.5014 86.2255C60.5547 85.8273 59.3902 86.3683 59.0822 87.39L58.6314 88.8776C58.3384 89.8318 58.8793 90.8461 59.841 91.1316L81.4336 97.6679C82.3877 97.961 83.402 97.42 83.6875 96.4583L87.4515 84.0317C90.0285 75.5269 85.2202 66.5413 76.7078 63.9643L76.7003 63.9568Z" fill="black"/>
<path d="M39.1149 84.3708L37.7002 89.0449L81.4856 102.298L82.9003 97.6238L39.1149 84.3708Z" fill="black"/>
<path d="M118.662 71.3291C102.584 71.3291 88.9777 59.8041 86.303 43.9214C83.3053 26.0628 95.3938 9.09078 113.252 6.09306C115.063 5.79254 116.904 5.63477 118.729 5.63477C134.807 5.63477 148.421 17.1598 151.088 33.0425C154.086 50.9011 141.997 67.8731 124.139 70.8708C122.328 71.1714 120.488 71.3291 118.662 71.3291Z" fill="white"/>
<path d="M118.729 11.2696C131.772 11.2696 143.297 20.6835 145.529 33.9742C148.015 48.7899 138.023 62.8244 123.207 65.3112C121.682 65.5667 120.164 65.6944 118.669 65.6944C105.627 65.6944 94.1015 56.2805 91.8701 42.9898C89.3833 28.1741 99.3757 14.1396 114.191 11.6528C115.717 11.3973 117.234 11.2696 118.729 11.2696ZM118.729 0C116.588 0 114.439 0.180314 112.321 0.533429C102.186 2.2389 93.3201 7.78355 87.3548 16.1531C81.3894 24.5227 79.0453 34.7179 80.7508 44.8531C82.2684 53.8838 86.9641 62.0881 93.9738 67.9633C100.901 73.7634 109.669 76.964 118.669 76.964C120.803 76.964 122.959 76.7837 125.078 76.4306C135.213 74.7251 144.079 69.1805 150.044 60.8109C156.009 52.4413 158.353 42.2461 156.648 32.1109C155.13 23.0877 150.435 14.8759 143.432 9.00067C136.505 3.20057 127.738 0 118.737 0L118.729 0Z" fill="black"/>
<path d="M123.485 24.0566H120.209C119.849 24.0566 119.503 24.1167 119.18 24.2219C118.849 24.2971 118.526 24.4173 118.211 24.5976L108.414 30.2549C106.813 31.179 106.265 33.2226 107.189 34.8229L108.827 37.6553C109.751 39.2556 111.795 39.8041 113.395 38.8799L116.866 36.874V49.5636C116.866 51.4118 118.361 52.9069 120.209 52.9069H123.485C125.333 52.9069 126.828 51.4118 126.828 49.5636V27.4C126.828 25.5517 125.333 24.0566 123.485 24.0566Z" fill="black"/>
</g>
<defs>
<clipPath id="clip0_431_7245">
<rect width="168" height="173.492" fill="white"/>
</clipPath>
</defs>
</svg>
