<svg width="164" height="200" viewBox="0 0 164 200" fill="none" xmlns="http://www.w3.org/2000/svg">
<g clip-path="url(#clip0_431_7231)">
<path d="M25.6025 124.373L2.9375 111.202L5.99638 100.48L29.5807 103.848L15.7994 57.9074L23.1456 51.4805L28.9705 53.0099V39.8389L36.6259 36.78L43.3619 38.6104L50.4071 30.9551L56.533 35.8607L62.6589 46.5749L70.0051 43.2069L78.5797 52.7008L88.993 84.2496L105.532 41.3683L113.952 36.4627L119.321 45.3546L124.829 34.6322L135.551 35.8607L139.229 41.9866L146.884 38.0003L152.701 44.7363L148.723 58.8267H157.907L160.665 68.3206L139.53 140.294L141.596 184.932L42.4426 159.282L32.3386 131.719L25.6025 124.373Z" fill="white"/>
<path d="M61.9647 12.1202L58.2256 15.8594L75.1726 32.8064L78.9117 29.0672L61.9647 12.1202Z" fill="black"/>
<path d="M115.834 12.1292L98.8867 29.0762L102.626 32.8153L119.573 15.8683L115.834 12.1292Z" fill="black"/>
<path d="M91.538 -0.00195312H86.25V21.9472H91.538V-0.00195312Z" fill="black"/>
<path d="M147.973 117.529C152.334 103.552 159.623 80.2448 162.804 69.8967C164.113 67.4805 164.358 64.625 163.479 61.9972C162.6 59.3858 160.721 57.3032 158.313 56.3025C156.58 55.5785 154.628 55.432 152.748 55.8551C153.163 54.4639 153.578 53.0809 153.993 51.7142L154.4 50.3637C155.832 45.629 154.855 42.3586 153.782 40.4468C152.513 38.1852 150.446 36.5825 147.965 35.9317C145.516 35.3053 142.555 35.8585 140.057 37.4123C139.732 36.493 139.293 35.6225 138.748 34.8334C137.137 32.5067 134.737 31.0261 131.995 30.6681C126.846 29.9766 121.737 33.3202 119.874 38.6082C119.719 39.0394 119.556 39.4705 119.394 39.8936C118.051 38.234 116.18 36.9974 113.951 36.4605C109.013 35.2646 103.896 37.8435 101.773 42.6026L101.707 42.7409L89.9356 80.7654C85.9737 68.7496 81.7189 55.8551 79.3841 48.8262C79.0506 46.109 77.5943 43.644 75.3653 42.0169C73.128 40.398 70.3864 39.796 67.8319 40.3736C66.0015 40.7885 64.3338 41.8054 63.0565 43.2453C62.5603 41.8135 62.0721 40.3817 61.6003 38.9662L61.2098 37.8191C59.6234 33.1331 56.9306 31.0423 54.9456 30.1068C52.6026 29.0004 49.9912 28.8946 47.575 29.8139C45.2239 30.7169 43.1331 32.8972 42.0023 35.6063C41.1969 35.0449 40.3346 34.5975 39.4315 34.2721C36.7713 33.3121 33.9646 33.5073 31.524 34.809C26.9194 37.2333 24.7147 42.9199 26.2686 48.3055C26.3987 48.7529 26.5126 49.1923 26.6265 49.6397C24.5683 49.0621 22.3311 49.1434 20.1996 50.0058C15.4893 51.9013 12.829 56.9778 13.8622 62.0705L13.8866 62.2332L26.6184 100.664C22.6972 99.8672 18.7678 99.0699 14.8466 98.2727L13.9517 98.0855L13.6995 98.053C8.85898 97.5323 5.18995 98.411 2.81443 100.656C0.780603 102.584 -0.154959 105.334 0.0158825 108.832C0.365701 115.731 8.2651 119.018 16.6201 122.492C21.2735 124.428 26.0326 126.405 29.181 128.886C20.3135 131.091 13.0568 138.233 11.1694 147.801L8.19188 162.9C5.58044 176.103 14.1632 188.916 27.3668 191.528L59.3549 197.849C68.1411 199.59 76.7564 196.36 82.3047 190.112C87.7554 197.353 97.0378 201.266 106.524 199.387L138.585 193.057C151.788 190.446 160.371 177.625 157.768 164.429L154.782 149.322C153.359 142.13 148.917 136.313 143.027 132.929C143.425 131.969 143.783 130.985 144.084 129.976C144.239 129.455 145.809 124.452 147.973 117.529ZM66.4327 47.5652C67.0184 46.5076 67.9621 45.7673 69.0034 45.5314C70.0692 45.2873 71.2569 45.572 72.2576 46.2961C73.3396 47.0852 74.0392 48.3055 74.1531 49.6316L74.1856 49.9407L74.2833 50.2254C75.9917 55.3751 78.7902 63.8521 81.7515 72.8498C81.4667 72.5488 81.1983 72.2559 80.9217 71.963L80.7427 71.784C77.4723 68.8879 74.3565 67.4479 71.444 67.4967L66.0422 51.3725V51.3481L66.0747 51.3318C65.6517 50.0709 65.7737 48.7367 66.4327 47.5652ZM81.4261 143.31C78.9367 145.01 76.2195 146.369 73.4209 147.321C64.3256 150.404 55.1652 150.013 48.2746 146.247C42.9785 143.351 39.3664 138.559 37.8289 132.392C37.4384 130.83 36.755 129.431 35.8357 128.17C32.3294 123.305 25.3981 120.417 18.6539 117.61C12.1782 114.918 5.48282 112.135 5.30384 108.572C5.20622 106.685 5.58858 105.31 6.45092 104.504C7.36208 103.634 8.9566 103.195 11.1043 103.195C11.6982 103.195 12.3409 103.227 13.0243 103.3L13.789 103.455C19.2071 104.553 24.6171 105.66 30.0434 106.75L34.5097 107.653L33.3544 104.179L33.0778 103.341L19.0119 60.8827C18.5726 58.3689 19.9067 55.8225 22.1765 54.9114C24.6171 53.927 27.3831 55.1473 28.6522 57.7506L42.2382 97.8171L47.2414 96.1168L33.6148 55.9202C33.6148 55.9202 33.6066 55.9039 33.6066 55.8958C33.208 54.4721 32.8663 53.0159 32.5084 51.4864C32.1586 49.9732 31.7925 48.4113 31.3532 46.8574C30.4989 43.8962 31.6379 40.7315 34.0053 39.4787C35.4289 38.714 36.7713 38.9336 37.6418 39.2509C39.3746 39.8692 40.8633 41.423 41.7338 43.4975C41.7338 43.5138 41.742 43.5301 41.7501 43.5463L58.2973 92.3664L63.3087 90.6743L46.6964 41.6915L46.0862 41.8949L46.6964 41.6671L46.6557 41.5532C45.6062 38.4699 47.9167 35.3459 49.4624 34.7521C50.5118 34.3534 51.6589 34.4022 52.6921 34.8904C54.2053 35.6063 55.4174 37.2008 56.1984 39.5112L56.5889 40.6583C57.9313 44.6283 59.3061 48.7123 60.9088 52.666H60.8925L66.4408 69.2052C65.2937 70.0431 64.2605 71.182 63.3331 72.6139C59.6071 78.4306 64.1304 85.6873 68.9139 93.3752C73.0874 100.087 77.3991 107.018 75.5117 111.81C73.9172 115.829 73.2745 119.88 73.5429 123.809C73.5592 124.013 73.5755 124.224 73.5918 124.436C73.608 124.631 73.6243 124.826 73.6487 125.022C73.6731 125.201 73.6975 125.38 73.7219 125.559C73.8114 126.25 73.9253 126.925 74.0799 127.601C74.1775 128.048 74.2914 128.495 74.4134 128.943C74.4704 129.162 74.5355 129.382 74.6087 129.602C74.6738 129.821 74.747 130.049 74.8202 130.269C74.8934 130.489 74.9666 130.708 75.048 130.92C75.1212 131.115 75.1944 131.31 75.2676 131.505C75.9022 133.141 76.7076 134.719 77.6838 136.248C77.8221 136.476 77.9767 136.704 78.1313 136.932C78.1964 137.037 78.2696 137.143 78.3509 137.249C78.7577 137.851 79.2051 138.437 79.6688 139.014C80.1326 139.592 80.6207 140.153 81.1332 140.707C81.182 140.763 81.2308 140.82 81.2878 140.869C81.483 141.081 81.6864 141.292 81.8898 141.496C82.1176 141.732 82.3535 141.967 82.5976 142.195C82.1908 142.553 81.8003 142.927 81.4261 143.31ZM126.292 156.717L125.324 151.819C125.056 150.477 125.934 149.175 127.277 148.907L130.751 148.224C132.093 147.955 133.395 148.834 133.663 150.176L134.631 155.073C134.9 156.416 134.021 157.717 132.679 157.986L129.205 158.669C127.863 158.938 126.561 158.059 126.292 156.717ZM136.104 178.552L132.63 179.235C131.287 179.504 129.986 178.625 129.717 177.283L128.749 172.385C128.481 171.043 129.359 169.742 130.702 169.473L134.176 168.79C135.518 168.521 136.819 169.4 137.088 170.742L138.056 175.64C138.325 176.982 137.446 178.284 136.104 178.552ZM142.913 115.951C140.667 123.142 139.179 127.902 139.016 128.447C138.772 129.252 138.495 130.033 138.178 130.798C134.411 129.61 130.295 129.317 126.146 130.139L94.0846 136.476C91.5301 136.981 89.1546 137.867 86.9906 139.063C79.2865 132.164 76.8296 122.825 80.4173 113.754C83.2891 106.489 78.2614 98.4028 73.3884 90.5848C69.6868 84.6297 65.8551 78.4713 67.7831 75.4693C68.6455 74.1189 69.5729 73.2647 70.541 72.9474C71.9647 72.4755 73.6487 73.1426 75.1619 74.1352C75.5198 74.3711 75.8615 74.6151 76.1869 74.8755C76.5205 75.1358 76.8296 75.3961 77.1306 75.6565C80.1081 78.8618 83.102 82.0752 86.0957 85.2724L92.0752 91.7075V91.683L92.7748 89.4458L106.654 44.6202C107.752 42.3179 110.331 41.0244 112.698 41.602C115.261 42.2203 116.798 44.8154 116.318 47.6791L104.091 88.1767L109.159 89.7062L121.387 49.1678C121.387 49.1678 121.419 49.0865 121.427 49.0458C121.932 47.6547 122.493 46.2879 123.087 44.848C123.681 43.408 124.299 41.9111 124.844 40.3817C125.877 37.4774 128.635 35.5574 131.296 35.9073C132.89 36.1188 133.858 37.0706 134.387 37.8353C135.428 39.3485 135.737 41.4637 135.249 43.644L120.329 93.0742L125.389 94.6036L140.334 45.092L139.83 44.9375L140.342 45.0676L140.375 44.9537C141.326 41.8298 145.012 40.6339 146.623 41.0488C147.705 41.3335 148.608 42.0413 149.169 43.0338C149.982 44.49 150.039 46.4995 149.332 48.8343L148.925 50.1848C147.729 54.1304 146.501 58.2062 145.532 62.2983H145.508L134.891 97.4673L139.952 98.9967L150.446 64.2182V64.1775L150.503 64.1938C150.885 62.9247 151.772 61.9078 152.976 61.3383C154.075 60.8258 155.27 60.7688 156.263 61.1837C157.264 61.5986 158.069 62.5098 158.459 63.6813C158.891 64.9585 158.744 66.3578 158.069 67.513L157.914 67.7733L157.825 68.0662C154.685 78.276 147.314 101.86 142.913 115.951Z" fill="black"/>
</g>
<defs>
<clipPath id="clip0_431_7231">
<rect width="164" height="199.852" fill="white"/>
</clipPath>
</defs>
</svg>
