<svg width="156" height="154" viewBox="0 0 156 154" fill="none" xmlns="http://www.w3.org/2000/svg">
<path d="M72.3445 149.965C110.419 149.965 141.285 119.56 141.285 82.0536C141.285 44.5474 110.419 14.1426 72.3445 14.1426C34.2699 14.1426 3.4043 44.5474 3.4043 82.0536C3.4043 119.56 34.2699 149.965 72.3445 149.965Z" fill="white"/>
<path d="M104.367 53.9032L104.338 53.9389L101.007 50.6574L101.043 50.6289C102.209 51.6561 103.317 52.7547 104.367 53.9032Z" fill="black"/>
<path d="M153.718 34.3946C155.695 32.4186 156.448 29.6437 155.738 26.9615C155.029 24.2721 152.986 22.2177 150.285 21.4473L138.119 17.9946L134.701 5.72501C133.955 3.05707 131.899 1.02402 129.19 0.289273C126.482 -0.452612 123.651 0.253605 121.623 2.16539L107.654 15.341C106.843 16.1114 106.235 17.0316 105.822 18.0303C95.8863 13.0083 84.6328 10.1692 72.7203 10.1692C32.6162 10.1692 0 42.3056 0 81.8039C0 121.302 32.6162 153.439 72.7203 153.439C112.824 153.439 145.441 121.302 145.441 81.8039C145.441 70.2262 142.631 59.2834 137.663 49.5961C138.583 49.2037 139.43 48.6473 140.147 47.934L153.718 34.3946ZM4.70705 81.8039C4.70705 64.1841 11.6518 48.1266 22.9849 36.1565L41.0383 53.9404C34.318 61.3521 30.2265 71.1107 30.2265 81.8039C30.2265 92.497 34.1442 101.828 40.6038 109.175L22.5287 126.973C11.4635 115.053 4.70705 99.1954 4.70705 81.8039ZM72.7203 148.802C54.5584 148.802 38.033 141.754 25.8236 130.29L43.877 112.506C51.4589 119.426 61.59 123.663 72.7203 123.663C83.8507 123.663 93.4821 119.633 100.999 113.013L119.059 130.797C106.901 141.961 90.6071 148.802 72.7203 148.802ZM140.734 81.8039C140.734 99.4593 133.76 115.538 122.391 127.523L104.337 109.739C111.094 102.32 115.214 92.5327 115.214 81.8039C115.214 71.0751 111.108 61.3164 104.366 53.9047L104.337 53.9404L74.3859 83.4446L71.0548 80.1632L97.7039 53.9118L99.384 52.2569L101.006 50.659L101.042 50.6304C93.5183 43.9891 83.59 39.9444 72.7203 39.9444C61.8507 39.9444 51.8862 44.0034 44.3622 50.659L26.3088 32.8751C38.4675 21.6755 54.7973 14.806 72.7203 14.806C84.6038 14.806 95.7849 17.8306 105.518 23.1308L109.921 41.8776L101.042 50.6304C102.208 51.6577 103.316 52.7562 104.366 53.9047L113.136 45.2732L132.572 50.0098C137.772 59.476 140.734 70.3046 140.734 81.8039Z" fill="black"/>
</svg>
