<svg width="18" height="17" viewBox="0 0 18 17" fill="none" xmlns="http://www.w3.org/2000/svg">
<path fill-rule="evenodd" clip-rule="evenodd" d="M17.1259 0.300706C17.5121 0.695498 17.5052 1.32862 17.1104 1.71483L2.28816 16.2148C1.89337 16.601 1.26024 16.5941 0.874034 16.1993C0.487824 15.8045 0.494781 15.1714 0.889573 14.7852L15.7118 0.285166C16.1066 -0.101043 16.7397 -0.0940857 17.1259 0.300706Z" fill="black"/>
<path fill-rule="evenodd" clip-rule="evenodd" d="M0.874077 0.300706C0.487867 0.695498 0.494824 1.32862 0.889616 1.71483L15.7118 16.2148C16.1066 16.601 16.7398 16.5941 17.126 16.1993C17.5122 15.8045 17.5052 15.1714 17.1104 14.7852L2.28821 0.285166C1.89341 -0.101043 1.26029 -0.0940857 0.874077 0.300706Z" fill="black"/>
</svg>
