<svg width="175" height="161" viewBox="0 0 175 161" fill="none" xmlns="http://www.w3.org/2000/svg">
<path d="M34.0285 96.3044C34.0285 96.3044 30.4303 61.397 31.8137 52.5378C33.197 43.6785 46.2137 7.10817 55.3599 5.1656C64.5062 3.22304 67.8247 3.50265 67.8247 3.50265L73.9173 10.7063L91.967 0.287109L101.393 10.8829L99.4062 13.2008L114.086 10.1545L125.167 9.87486L126.83 19.2934L121.032 24.6869L109.656 32.0378L95.5284 40.3452L88.6043 48.6526C88.6043 48.6526 104.395 44.223 114.645 48.6526C124.895 53.0823 134.593 63.6119 134.593 63.6119L136.256 76.3563L126.838 77.4674L120.745 74.9729L104.402 66.9378L96.095 70.5359L88.619 81.0655L89.1709 92.4266L100.252 101.293L113.549 99.9099L123.519 90.4914L133.769 94.6488L132.106 109.328L106.617 127.054L70.3265 127.886L34.0358 96.3044H34.0285Z" fill="white"/>
<path d="M159.805 54.4589L144.477 69.7871L147.859 73.1691L163.187 57.8409L159.805 54.4589Z" fill="black"/>
<path d="M148.36 91.2294L144.978 94.6113L160.306 109.939L163.688 106.558L148.36 91.2294Z" fill="black"/>
<path d="M174.401 79.668H154.549V84.4508H174.401V79.668Z" fill="black"/>
<path d="M134.137 60.5142C128.272 53.7741 121.812 49.1973 114.924 46.9089C108.626 44.8118 101.562 44.3851 94.4687 45.6801C99.7592 40.831 105.8 36.7914 112.15 33.8702C113.372 33.3036 114.638 32.8547 115.969 32.3691C118.633 31.4125 121.385 30.4192 123.916 28.506C127.654 25.6805 130.583 19.8233 128.67 14.5181C127.382 10.9567 124.24 8.07964 120.48 7.0127C116.786 5.96048 112.739 7.12308 109.487 8.06493L108.758 8.27096C106.521 8.91112 104.152 9.74996 101.393 10.8831C101.157 4.73166 95.4547 1.31745 91.9669 0.287297L91.7314 0.213715L91.4886 0.19164C85.6829 -0.294001 79.7522 2.65664 74.2336 7.11572C73.071 5.23202 69.8702 0.89067 64.6385 0.118058C60.0322 -0.558897 55.2715 1.678 50.4665 6.76252C37.0967 20.9344 31.4382 42.3321 31.2101 43.2225C31.0482 43.8258 27.3323 58.167 28.7083 75.3558C29.0321 79.3439 29.6281 83.5013 30.6215 87.666C23.587 87.7323 16.7071 91.1612 12.4982 97.4378L3.73455 110.528C-3.04236 120.638 -0.341894 134.324 9.77565 141.101L33.0055 156.671C43.1231 163.441 56.8093 160.74 63.5862 150.63L72.3572 137.54C73.8804 135.266 74.9252 132.809 75.5139 130.285C78.1114 130.837 80.8486 131.278 83.733 131.609C85.6756 131.83 87.5887 131.94 89.4651 131.94C114.439 131.94 133.438 113.228 136.374 104.281C138.537 97.7027 135.447 91.588 131.274 88.939C127.294 86.4152 122.548 86.9965 118.883 90.4622C118.272 91.0435 117.662 91.6395 117.051 92.2355C112.842 96.3634 109.207 99.9248 103.328 99.0051C95.7196 97.813 90.12 91.3157 90.3039 83.8913C90.4364 78.3873 93.7328 73.2734 98.707 70.8672C101.54 69.4986 104.608 69.1013 107.338 69.7562C109.656 70.3154 111.613 71.8753 113.688 73.5309C114.454 74.1417 115.241 74.7745 116.065 75.3705C117.581 76.4595 118.964 77.3498 120.296 78.093C123.269 79.756 127.345 82.037 131.745 80.5286C135.285 79.3145 137.889 76.0401 138.537 72.0004L138.566 71.787C139.045 68.1815 137.595 64.495 134.137 60.5142ZM133.82 71.1616V71.2425C133.452 73.5015 132.032 75.3705 130.193 76.0033C127.809 76.82 125.174 75.3484 122.629 73.9209C121.459 73.266 120.23 72.4713 118.861 71.4853C118.133 70.9629 117.426 70.3963 116.676 69.793C114.284 67.8872 111.812 65.9078 108.457 65.1058C104.652 64.1934 100.451 64.7084 96.6246 66.5627C90.0611 69.7414 85.6977 76.4963 85.5211 83.7736C85.2783 93.582 92.6144 102.162 102.585 103.729C110.833 105.024 115.918 100.043 120.399 95.6497C120.988 95.0758 121.576 94.4945 122.172 93.9352C124.255 91.9632 126.58 91.6248 128.714 92.9787C131.26 94.5901 133.217 98.5783 131.834 102.787C129.118 111.05 109.097 129.718 84.2775 126.856C81.4299 126.525 78.7 126.083 76.0805 125.517C76.1541 118.335 72.7251 111.256 66.3161 106.959L43.0789 91.3967C40.7611 89.8441 38.2666 88.7919 35.6986 88.2106C34.5949 84.09 33.8591 79.675 33.4764 74.9731C32.1667 58.6306 35.7943 44.5837 35.8311 44.4366C35.8899 44.2232 41.4307 23.3038 53.947 10.0443C57.604 6.17387 60.9594 4.42997 63.9174 4.84939C68.0085 5.43805 70.4294 10.0811 70.4515 10.1252L71.2094 9.7426C59.2302 20.8609 49.8558 37.7847 49.2672 38.859L53.4613 41.1548C59.164 30.7576 76.912 4.13564 90.8263 4.94504C92.2023 5.40861 97.8019 7.67494 96.3597 13.1127H96.3818C72.0923 25.0477 63.4685 45.9671 63.0932 46.8942L67.5302 48.6749C67.6185 48.4541 76.625 26.6003 101.9 15.8499C105.064 14.5034 107.662 13.5542 110.068 12.8698L110.811 12.6565C113.615 11.847 116.801 10.9346 119.17 11.6116C121.481 12.2665 123.394 14.003 124.166 16.1442C125.255 19.139 123.386 22.9138 121.032 24.6871C119.082 26.1661 116.786 26.9976 114.351 27.8732C112.982 28.3662 111.562 28.8739 110.156 29.5215C101.893 33.3183 94.1228 38.8885 87.6623 45.658C86.9633 46.3938 86.1759 47.2106 85.5505 48.204C82.1142 49.5432 78.8766 51.265 75.9407 53.3253C75.4403 53.6785 74.94 54.0464 74.4543 54.4216L77.3829 58.2038C77.8097 57.8727 78.2438 57.5489 78.6853 57.2398C83.4019 53.936 89.0162 51.5887 94.9249 50.4556C101.363 49.2194 107.758 49.5652 113.416 51.4416C119.479 53.4577 125.233 57.571 130.531 63.6562C133.033 66.5333 134.115 68.9836 133.82 71.1616Z" fill="black"/>
</svg>
