<svg width="213" height="196" viewBox="0 0 213 196" fill="none" xmlns="http://www.w3.org/2000/svg">
<g clip-path="url(#clip0_431_7238)">
<path d="M184.023 54.3446L75.7243 14.3462C62.8407 9.58787 48.5391 16.1747 43.7807 29.0583L14.0995 109.423C9.3412 122.306 15.928 136.608 28.8117 141.366L137.111 181.365C149.994 186.123 164.296 179.536 169.054 166.653L198.735 86.2882C203.494 73.4046 196.907 59.1029 184.023 54.3446Z" fill="white"/>
<path d="M188.18 50.9865L74.0297 8.827C60.8508 3.95959 46.1732 10.7132 41.3057 23.8921L8.824 111.839C3.95659 125.018 10.7208 139.691 23.8997 144.558L138.05 186.718C151.221 191.582 165.899 184.829 170.766 171.65L203.248 83.7027C208.115 70.5238 201.351 55.851 188.18 50.9865ZM141.002 51.0332L187.31 68.1363L185.454 73.1605L139.146 56.0575L141.002 51.0332ZM97.4188 32.4507C100.201 33.4785 101.628 36.5614 100.6 39.344C99.5723 42.1267 96.4816 43.5501 93.699 42.5224C90.9163 41.4946 89.4929 38.404 90.5206 35.6214C91.5483 32.8387 94.6361 31.423 97.4188 32.4507ZM81.8901 26.7155C84.6727 27.7432 86.0913 30.8232 85.0635 33.6059C84.0358 36.3885 80.9529 37.8148 78.1703 36.7871C75.3876 35.7594 73.9642 32.6687 74.9919 29.8861C76.0196 27.1035 79.1074 25.6878 81.8901 26.7155ZM66.3613 20.9802C69.1363 22.0051 70.5626 25.088 69.5348 27.8706C68.5071 30.6533 65.4165 32.0767 62.6416 31.0518C59.8666 30.027 58.4355 26.9335 59.4632 24.1508C60.4909 21.3682 63.5787 19.9525 66.3613 20.9802ZM165.742 169.794C161.899 180.198 150.31 185.536 139.906 181.694L25.7553 139.534C15.3513 135.691 10.0057 124.099 13.8482 113.695L41.788 38.0455L193.682 94.1448L165.742 169.794Z" fill="black"/>
<path d="M103.763 91.2827C102.956 89.6145 101.935 88.0514 100.718 86.6359C98.3446 83.8355 95.2357 81.598 91.5565 80.2392C80.109 76.0112 67.3471 81.8825 63.1163 93.3377C62.4254 95.2083 62.0019 97.1161 61.8368 99.0139C61.6619 100.891 61.7378 102.754 62.0419 104.571C63.292 112.174 68.4853 118.923 76.2149 121.778C87.6701 126.009 100.432 120.137 104.663 108.682C106.844 102.777 106.34 96.5299 103.763 91.2827ZM68.1405 95.1933C71.3464 86.513 81.0206 82.0575 89.7009 85.2634C91.7183 86.0085 93.5031 87.0981 95.0162 88.4475L67.5497 97.1974C67.6939 96.5216 67.895 95.8581 68.1405 95.1933ZM78.0705 116.754C71.9409 114.49 67.9219 109.009 67.2175 102.925L98.5876 92.9287C100.851 97.05 101.389 102.088 99.6385 106.827C96.4326 115.507 86.7585 119.962 78.0705 116.754Z" fill="black"/>
<path d="M162.088 123.393L165.513 119.282L119.275 80.728L110.912 83.3928C107.255 77.7644 101.831 73.2316 95.068 70.7336C78.3799 64.5702 59.7832 73.1352 53.6168 89.831C52.1038 93.9277 51.4786 98.1415 51.6438 102.261L38.5032 106.446L40.1305 111.553L52.3255 107.669C54.5419 118.15 61.9286 127.308 72.7037 131.287C80.2168 134.062 88.1096 133.859 95.0858 131.262L96.8249 135.567C93.2547 138.693 92.0028 143.914 94.0892 148.444L98.5009 158.023C101.046 163.548 107.585 165.963 113.11 163.418C118.635 160.874 121.05 154.334 118.505 148.809L114.091 139.238C112.818 136.476 110.546 134.494 107.903 133.518C105.924 132.787 103.744 132.624 101.612 133.118L99.94 128.987C106.29 125.351 111.439 119.567 114.163 112.193C117.154 104.092 116.68 95.5544 113.49 88.1838L118.1 86.7152L162.088 123.393ZM109.138 110.337C103.997 124.258 88.488 131.407 74.5593 126.263C65.392 122.877 59.166 115 57.451 106.039C57.1123 104.245 56.9441 102.418 56.9773 100.568C57.0224 97.6153 57.5591 94.6162 58.6411 91.6867C63.7825 77.7657 79.2915 70.6164 93.2124 75.7579C98.3526 77.6563 102.569 80.9616 105.586 85.0888C106.665 86.5676 107.597 88.1591 108.354 89.818C111.212 96.0648 111.702 103.396 109.138 110.337Z" fill="black"/>
</g>
<defs>
<clipPath id="clip0_431_7238">
<rect width="172.634" height="144.693" fill="white" transform="translate(50.1299) rotate(20.2708)"/>
</clipPath>
</defs>
</svg>
