<svg width="222" height="230" viewBox="0 0 222 230" fill="none" xmlns="http://www.w3.org/2000/svg">
<path d="M40.3287 99.1071L66.0512 50.462L154.036 86.8106L182.298 126.588L184.228 143.581L173.728 159.162L156.012 162.498L151.329 176.447L142.769 189.291L105.28 202.729L57.3148 185.712L33.3372 167.339L20.6554 138.062L25.7196 121.642L40.3287 99.1071Z" fill="white"/>
<path d="M160.759 134.538C161.231 130.516 163.27 127.342 165.077 125.628L168.433 129.151C167.722 129.842 161.728 136.146 169.272 145.073L165.558 148.209C162.978 145.157 161.602 142.204 161.016 139.47C154.337 138.358 150.764 144.847 150.603 145.141L146.303 142.866C148.12 139.41 153.264 133.837 160.764 134.539L160.759 134.538Z" fill="black"/>
<path d="M99.6058 153.106L103.851 155.493C96.8632 167.92 81.0709 172.346 68.6439 165.359L71.0317 161.114C81.1183 166.787 93.9371 163.194 99.61 153.107L99.6058 153.106Z" fill="black"/>
<path d="M59.4303 56.3744C58.1593 54.9623 56.9945 53.4789 56.0415 51.867C52.2986 45.5059 52.7075 39.0269 57.1639 34.0918C64.0561 26.4666 78.6198 24.6065 90.6569 29.6276C95.2628 27.0665 112.605 19.5207 138.924 32.6087C146.206 36.2323 152.502 41.4637 157.653 48.1753C161.292 48.6151 172.595 50.6548 180.194 59.4027C185.381 65.3729 187.726 73.1665 187.176 82.5803C190.612 86.7678 203.848 105.628 185.609 128.732C187.43 134.308 187.515 140.494 185.396 146.433C181.234 158.098 169.936 165.196 158.152 164.598L151.604 180.489C149.129 186.786 144.085 191.801 137.771 194.241L115.594 202.819C110.164 204.925 104.153 205.001 98.6716 203.045L61.151 189.657C34.7607 180.24 16.6247 153.064 19.8582 127.789C20.5911 122.038 26.7731 114.169 28.0009 112.657L59.4276 56.3687L59.4303 56.3744ZM60.9703 98.4482L61.9587 95.6782C63.0963 96.3072 64.3875 96.8913 65.7893 97.3915C71.266 99.3457 76.2948 99.2703 77.0248 97.2244C77.7548 95.1785 73.9082 91.9409 68.4315 89.9867C67.0296 89.4865 65.6588 89.1255 64.3816 88.888L68.7677 76.5959L67.1806 76.0296C61.0345 73.8365 54.2448 77.0516 52.0517 83.1977L48.2334 93.8986L60.9676 98.4424L60.9703 98.4482ZM46.6018 98.4844L45.3867 101.89C43.1936 108.036 46.4087 114.826 52.559 117.02L63.6135 120.965C69.7596 123.158 76.5494 119.943 78.7439 113.793L79.9591 110.387L46.6061 98.4859L46.6018 98.4844ZM24.6801 128.414C21.7759 151.129 38.8714 176.554 62.7864 185.087L100.303 198.473C104.689 200.039 109.496 199.974 113.84 198.293L136.021 189.716C141.069 187.764 145.102 183.75 147.096 178.681L153.19 163.89C152.236 163.663 151.286 163.386 150.343 163.05C147.194 161.926 144.317 160.268 141.793 158.124L144.943 154.417C146.975 156.144 149.282 157.484 151.805 158.408C162.802 162.432 174.467 157.872 179.707 147.403C185.885 135.062 179.745 120.456 167.145 115.961C155.426 111.779 142.489 117.911 138.305 129.635L133.725 128.001C134.463 125.934 135.444 124.035 136.591 122.271C136.083 118.786 134.893 106.707 140.357 94.9177C132.595 92.0672 109.595 83.2576 96.3744 74.2645C92.9415 73.6043 74.7984 69.7358 63.0407 59.8884L56.2734 72.0048C60.0888 70.2626 64.5589 69.9309 68.8149 71.4495L79.8694 75.394C86.3986 77.7237 90.5804 83.7194 90.934 90.2427C95.3373 85.4168 102.37 83.4226 108.895 85.7509L119.95 89.6953C128.638 92.7957 133.164 102.35 130.065 111.034L123.396 129.725C120.295 138.414 110.74 142.944 102.051 139.843L90.9964 135.899C84.4714 133.571 80.2854 127.573 79.936 121.052C79.0794 121.989 78.122 122.81 77.0922 123.515C76.0623 124.22 75.0244 124.908 74.0965 125.74L68.5823 130.687C67.0235 132.01 66.7728 134.322 68.0153 135.947C69.2785 137.593 71.6589 137.944 73.3314 136.728L77.8091 133.476L80.6671 137.41L76.1894 140.662C73.7919 142.407 70.7526 142.732 68.1216 141.793C65.8231 140.973 63.8403 139.188 62.8736 136.551C61.5884 133.051 62.9466 129.098 65.788 126.681L66.0817 126.43C64.7074 126.305 63.3291 126.031 61.9736 125.548L50.919 121.603C42.2303 118.503 37.7006 108.947 40.7994 100.263L41.3431 98.7388L32.1387 115.225L31.8922 115.583C30.0556 117.818 25.1768 124.481 24.6744 128.416L24.6801 128.414ZM101.194 112.801L102.219 109.925C103.472 110.657 104.914 111.352 106.522 111.926C111.994 113.878 117.027 113.804 117.757 111.759C118.487 109.713 114.641 106.475 109.164 104.521C107.556 103.947 106.002 103.568 104.567 103.346L108.989 90.9525L107.259 90.3352C101.113 88.1421 94.3276 91.3587 92.1345 97.5048L88.3162 108.206L101.194 112.801ZM86.6819 112.786L85.4667 116.191C83.2737 122.338 86.4888 129.127 92.6349 131.32L103.689 135.265C109.835 137.458 116.621 134.241 118.816 128.091L120.031 124.685L86.6777 112.784L86.6819 112.786Z" fill="black"/>
</svg>
