<svg width="240" height="201" viewBox="0 0 240 201" fill="none" xmlns="http://www.w3.org/2000/svg">
<path d="M12.0977 136.627L53.0655 118.686L57.9051 99.6198L74.2733 93.278L63.2478 81.8831L62.3062 62.8643L72.0594 45.9028L99.6899 42.3155L142.275 24.2245L160.925 17.4773L176.091 22.8806C176.091 22.8806 193.305 45.8142 191.388 64.5405C189.472 83.2668 186.953 114.123 167.842 128.525C148.732 142.927 137.679 128.641 137.679 128.641L127.006 116.967L112.961 122.584L116.653 133.544L108.069 139.081L96.2904 141.871L100.159 156.094L91.6829 162.997L76.9459 154.817L53.0985 155.904L11.0813 146.474L12.0884 136.635L12.0977 136.627Z" fill="white"/>
<path d="M201.51 94.6503L197.238 98.1289L213.004 117.491L217.276 114.012L201.51 94.6503Z" fill="black"/>
<path d="M219.511 53.9096L200.149 69.6758L203.628 73.9477L222.99 58.1815L219.511 53.9096Z" fill="black"/>
<path d="M232.986 84.6448L210.238 82.3164L209.677 87.7969L232.425 90.1252L232.986 84.6448Z" fill="black"/>
<path d="M187.056 36.0332C181.392 23.3638 172.759 15.8177 162.725 14.7907C155.795 14.0814 148.879 16.5514 142.592 21.8718C133.48 27.9084 107.06 43.3939 77.4846 42.3434L77.3919 42.3339C68.5479 41.5053 60.4948 52.0124 59.032 66.3038C57.7867 78.4704 61.7784 88.9153 68.4379 92.3573C62.1478 93.9627 53.7849 98.0908 49.9848 108.582C43.9239 105.201 36.332 104.875 29.7542 108.377L15.8065 115.793C5.48123 121.279 1.55427 134.091 7.04065 144.417L21.0051 170.715C26.4915 181.041 39.3046 184.959 49.6383 179.474L63.5851 172.066C69.3515 169.001 73.1109 163.652 74.3653 157.723C75.3278 157.643 76.256 157.397 77.1103 157.041C77.2453 157.387 77.3887 157.734 77.5676 158.068C78.7212 160.282 80.9422 161.889 83.6149 162.163L91.6839 162.989C95.9333 163.424 99.7255 160.336 100.16 156.086L101.421 143.768C102.331 143.784 103.265 143.65 104.19 143.353L113.758 140.268C115.899 139.576 117.627 138.1 118.658 136.101C119.671 134.109 119.853 131.835 119.168 129.703L117.847 125.624C117.491 124.531 116.937 123.528 116.196 122.694L124.267 120.002L124.276 120.002C126.359 121.536 128.441 123.172 130.48 124.897L130.488 124.898C130.488 124.898 130.497 124.899 130.496 124.907C135.802 132.496 142.576 136.981 150.139 137.755C160.173 138.782 170.156 133.142 178.269 121.882C186.066 111.051 191.277 96.1805 192.933 80.0005C194.589 63.8205 192.497 48.2196 187.057 36.0247L187.056 36.0332ZM64.3017 66.8431C65.5444 54.7018 71.8434 47.0994 76.9444 47.6215C82.0454 48.1436 86.6821 56.8653 85.4394 69.0066C84.1967 81.148 77.8893 88.7495 72.7882 88.2274C67.6872 87.7053 63.059 78.9844 64.3017 66.8431ZM28.7108 142.128L24.1374 144.607C22.8834 145.288 21.321 144.822 20.6399 143.568L18.884 140.33C18.203 139.076 18.6696 137.513 19.9236 136.832L24.4969 134.352C25.7509 133.671 27.3134 134.138 27.9944 135.392L29.7503 138.63C30.4313 139.884 29.9647 141.447 28.7108 142.128ZM48.1061 132.347L43.5327 134.827C42.2788 135.508 40.7163 135.041 40.0353 133.787L38.2794 130.549C37.5983 129.295 38.065 127.732 39.3189 127.051L43.8923 124.572C45.1462 123.891 46.7087 124.357 47.3898 125.611L49.1456 128.85C49.8267 130.104 49.36 131.666 48.1061 132.347ZM80.511 116.741L69.136 121.413L71.1478 126.313L79.8983 122.728L77.0176 150.872C76.8207 151.048 76.5875 151.245 76.3307 151.424C75.9244 150.232 75.422 149.064 74.8149 147.92L59.1787 118.477C58.8579 117.865 58.5009 117.274 58.1337 116.7C57.1157 114.909 55.8814 113.317 54.4804 111.939C58.635 97.7353 72.3485 96.6852 75.5053 96.6419L75.5137 96.6428C76.2773 96.8402 77.2053 97.0971 78.2891 97.4125C78.9169 97.6046 79.5945 97.8102 80.3218 98.0295C80.503 98.0906 80.6842 98.1518 80.8746 98.2054C81.1552 98.2937 81.4443 98.3829 81.7325 98.4806C82.0207 98.5783 82.3173 98.6768 82.6224 98.7762L62.2849 107.523L64.3845 112.398L81.7192 104.937L85.1331 103.463C86.0979 103.111 87.1076 102.984 88.095 103.076C88.998 103.16 89.8821 103.43 90.6872 103.887C92.0492 104.648 93.0171 105.847 93.2646 107.09C93.3997 107.769 93.3296 108.537 93.0554 109.301C92.5179 110.89 91.1454 112.479 89.0133 113.249L88.907 113.29L86.2479 114.381L86.0697 114.456L80.511 116.741ZM94.8983 155.556C94.7611 156.897 93.5714 157.866 92.2308 157.728L84.1619 156.902C82.8297 156.766 81.8609 155.576 81.9982 154.236L85.2421 122.542C86.0384 124.668 87.666 126.496 89.8525 127.691C90.651 128.131 91.486 128.463 92.3415 128.679C91.7912 130.309 91.7498 132.128 92.3117 133.881L93.6321 137.961C94.142 139.555 95.0885 140.879 96.2989 141.872L94.8983 155.556ZM113.946 133.693C113.563 134.438 112.928 134.977 112.136 135.229L102.567 138.322C102.372 138.387 102.18 138.435 101.973 138.457C100.543 138.617 99.1405 137.749 98.6808 136.331L97.3679 132.26C97.342 132.181 97.3227 132.119 97.3052 132.041L97.5149 129.992C97.8641 129.244 98.5056 128.636 99.3513 128.365L103.131 127.142L108.928 125.281C109.343 125.137 109.773 125.095 110.187 125.138C110.566 125.176 110.929 125.29 111.286 125.463C112.015 125.836 112.562 126.48 112.815 127.264L114.135 131.344C114.379 132.127 114.318 132.964 113.946 133.693ZM103.732 121.274L98.2191 123.112L97.4612 123.358C95.7781 123.987 93.9314 123.883 92.3985 123.044C91.1797 122.383 90.3084 121.322 90.0791 120.234C89.9715 119.703 89.9982 119.11 90.1539 118.504L90.8647 118.219C93.3606 117.307 95.4248 115.618 96.7933 113.569L99.2918 112.632L104.827 110.574L107.52 109.572L107.635 109.532C109.379 110.469 111.112 111.439 112.855 112.469C113.433 112.81 114.011 113.158 114.596 113.516C116 114.367 117.416 115.27 118.86 116.228L103.732 121.274ZM121.359 111.457C120.282 110.742 119.195 110.042 118.121 109.379C115.966 108.042 113.829 106.784 111.716 105.613L111.717 105.605C111.297 105.383 110.877 105.153 110.466 104.923C109.207 104.241 107.97 103.594 106.738 102.974C106.738 102.974 106.739 102.966 106.731 102.965C106.479 102.845 106.228 102.717 105.977 102.589C105.823 102.514 105.669 102.43 105.507 102.354C105.102 102.15 104.696 101.956 104.298 101.762C104.193 101.708 104.07 101.653 103.965 101.6C103.258 101.263 102.559 100.936 101.877 100.611C101.242 100.316 100.608 100.021 99.988 99.7527C99.2551 99.4221 98.5381 99.1017 97.8279 98.7989C97.1758 98.5107 96.522 98.2393 95.8851 97.9696L95.8767 97.9688C90.278 95.6492 85.4039 93.9916 81.6942 92.8621C80.6862 92.5545 79.7592 92.2892 78.9307 92.0596C84.922 88.7111 89.6461 80.1807 90.7326 69.5655C91.6526 60.5775 89.7164 52.5241 85.9481 47.5547C87.6798 47.4508 89.3904 47.3022 91.0801 47.1088C91.253 47.0839 91.4167 47.0665 91.5803 47.0492C91.9777 46.9961 92.3742 46.9515 92.7631 46.8976C92.9276 46.8719 93.0837 46.8452 93.2389 46.827C94.301 46.6887 95.3572 46.5242 96.3984 46.341C96.4414 46.3369 96.476 46.332 96.5106 46.327C96.6582 46.2995 96.805 46.2804 96.9526 46.2529C97.2041 46.2105 97.4555 46.1681 97.7077 46.1172C97.7162 46.1181 97.7246 46.119 97.733 46.1198C98.0106 46.0716 98.2798 46.0224 98.5489 45.9733C98.818 45.9242 99.0872 45.875 99.3581 45.809C100.436 45.5957 101.507 45.373 102.563 45.1317C103.095 45.0073 103.619 44.882 104.143 44.7567C104.553 44.6624 104.957 44.5503 105.359 44.4467C105.472 44.4242 105.586 44.3932 105.7 44.3623C105.726 44.3565 105.761 44.3515 105.788 44.3372C105.84 44.3255 105.892 44.3138 105.945 44.3021C106.033 44.277 106.119 44.2604 106.199 44.2344C106.4 44.1868 106.593 44.1299 106.785 44.0815C106.935 44.0371 107.092 44.0021 107.242 43.9493C107.75 43.8138 108.259 43.67 108.759 43.5252C109.768 43.2366 110.771 42.9303 111.748 42.6214C112.241 42.4674 112.727 42.304 113.211 42.1491C114.182 41.8225 115.135 41.4941 116.072 41.164C116.542 40.9905 117.01 40.8255 117.471 40.6512C119.322 39.9631 121.116 39.2521 122.834 38.5249C123.698 38.1618 124.545 37.7969 125.375 37.4218C126.197 37.0544 127.01 36.686 127.798 36.3151C128.2 36.1263 128.585 35.9442 128.98 35.7545C129.365 35.5724 129.75 35.3818 130.127 35.1989C130.262 35.1275 130.396 35.0646 130.531 34.9932C130.773 34.8816 131.007 34.7607 131.249 34.6407C131.617 34.4568 131.977 34.2721 132.337 34.0874C131.929 34.7359 131.529 35.402 131.145 36.0783C125.267 46.2202 121.352 58.9229 119.955 72.565C118.473 87.0418 119.986 101.067 124.225 112.594C124.357 112.965 124.499 113.329 124.632 113.692C123.543 112.924 122.46 112.191 121.374 111.475L121.359 111.457ZM150.686 132.495C148.401 132.261 146.221 131.586 144.166 130.524C140.402 128.597 137.044 125.356 134.225 121.098L134.217 121.097C129.597 114.132 126.42 104.46 125.22 93.381C125.855 93.4972 126.552 93.6025 127.302 93.6793C130.827 94.04 135.47 93.7911 140.315 91.484C149.458 87.1461 152.562 78.7055 153.294 76.2244L153.49 75.5544L153.337 74.8827C152.8 72.553 150.437 64.5922 142.4 59.7141C137.201 56.5664 132.01 56.0947 128.383 56.3198C132.037 43.4285 138.084 32.878 145.234 26.5299C146.482 25.4052 147.766 24.4291 149.08 23.5837C153.258 20.8846 157.699 19.6097 162.193 20.0697C179.411 21.8319 190.842 48.4932 187.67 79.4788C184.499 110.464 167.903 134.257 150.686 132.495Z" fill="black"/>
</svg>
