<svg width="152" height="169" viewBox="0 0 152 169" fill="none" xmlns="http://www.w3.org/2000/svg">
<g clip-path="url(#clip0_417_59234)">
<path d="M128.447 82.5957L27.1173 60.6193C23.0533 59.7379 19.0443 62.3179 18.1629 66.3819L3.8292 132.473C2.94781 136.537 5.5278 140.546 9.59178 141.427L110.922 163.403C114.986 164.285 118.995 161.705 119.876 157.641L134.21 91.5501C135.091 87.4861 132.511 83.4771 128.447 82.5957Z" fill="white"/>
<path d="M128.685 79.7077L113.106 76.3291L115.422 65.6542C116.495 60.7033 113.35 55.8244 108.412 54.7536L58.1577 43.8544C53.2068 42.7807 48.3226 45.9181 47.2489 50.869L44.9337 61.5438L29.3554 58.1652C23.55 56.9062 17.8128 60.6042 16.5552 66.4028L2.28183 132.215C1.02424 138.014 4.714 143.757 10.5194 145.016L109.849 166.558C115.647 167.816 121.398 164.121 122.656 158.322L136.929 92.5094C138.187 86.7108 134.483 80.9653 128.685 79.7077ZM57.8956 57.7014C58.3604 55.5582 60.4663 54.1971 62.6094 54.6619L99.8698 62.7429C102.013 63.2077 103.379 65.3219 102.915 67.465L101.536 73.8198L56.5174 64.0561L57.8956 57.7014ZM118.247 157.366C117.516 160.737 114.175 162.881 110.805 162.15L11.4755 140.607C8.10481 139.876 5.95911 136.542 6.69014 133.171L18.0335 80.8686L59.2799 112.054L58.2635 116.741C57.4648 120.423 59.807 124.063 63.4897 124.862L69.9868 126.271C73.6695 127.069 77.309 124.727 78.1077 121.045L79.1108 116.419L129.578 105.124L118.247 157.366ZM130.632 100.261L80.1654 111.557L80.414 110.41C81.2142 106.721 78.8705 103.088 75.1878 102.29L68.6907 100.88C65.0081 100.082 61.37 102.417 60.5698 106.107L60.3345 107.192L19.0867 76.0127L20.9635 67.3589C21.6945 63.9882 25.0287 61.8425 28.3994 62.5735L127.729 84.116C131.099 84.847 133.252 88.1826 132.521 91.5533L130.632 100.261Z" fill="black"/>
<path d="M65.675 18.1136L61.8818 20.5547L72.9456 37.7466L76.7388 35.3055L65.675 18.1136Z" fill="black"/>
<path d="M110.583 27.8522L93.3916 38.916L95.8327 42.7092L113.025 31.6454L110.583 27.8522Z" fill="black"/>
<path d="M92.5226 13.3526L88.1143 12.3965L84.1458 30.6943L88.5541 31.6504L92.5226 13.3526Z" fill="black"/>
</g>
<defs>
<clipPath id="clip0_417_59234">
<rect width="123.172" height="146.052" fill="white" transform="translate(30.9561) rotate(12.2368)"/>
</clipPath>
</defs>
</svg>
