<svg width="192" height="25" viewBox="0 0 192 25" fill="none" xmlns="http://www.w3.org/2000/svg">
<g clip-path="url(#clip0_2004_290)">
<path d="M5.99938 24.7128C3.59841 24.7128 1.97655 24.6685 1.13379 24.5772C0.812447 24.544 0.542642 24.4223 0.324373 24.212C0.109135 24.0017 0 23.7527 0 23.4566C0.160671 17.0984 0.973118 9.66107 2.43431 1.15297C2.47069 0.903953 2.59195 0.701972 2.79506 0.541494C2.99817 0.383783 3.24373 0.292477 3.52869 0.270342C4.71704 0.179035 6.45714 0.134766 8.74897 0.134766C11.0408 0.134766 12.6627 0.179035 13.5024 0.270342C14.4422 0.372716 15.0242 0.870751 15.2485 1.76168C15.5699 3.34433 15.9094 4.88547 16.2702 6.39064C16.8401 8.51559 17.4888 9.57806 18.2194 9.57806C18.8894 9.57806 19.4684 8.6069 19.9656 6.66179C20.1626 5.95071 20.3961 5.00998 20.6628 3.83959C20.9296 2.66921 21.0872 1.9775 21.1358 1.76445C21.3571 0.870751 21.927 0.375483 22.8455 0.273109C23.6883 0.181802 25.2859 0.137532 27.6384 0.137532C29.7422 0.137532 31.4702 0.181802 32.8192 0.273109C33.1163 0.295244 33.3679 0.383783 33.571 0.535961C33.7742 0.688138 33.9015 0.895653 33.953 1.15574C35.3778 9.49506 36.1751 16.9324 36.3479 23.4622C36.36 23.7555 36.263 24.0072 36.0599 24.2175C35.8568 24.4278 35.587 24.5468 35.2505 24.5828C34.4077 24.6741 32.798 24.7183 30.4213 24.7183C27.6596 24.7183 25.8467 24.6741 24.9797 24.5828C24.6584 24.5496 24.3977 24.4306 24.2006 24.2258C24.0036 24.0211 23.9217 23.7444 23.9581 23.3958C24.3037 20.842 24.4795 18.5538 24.4795 16.5312C24.4795 15.2889 24.3795 14.3288 24.1824 13.6509C23.9854 12.973 23.7186 12.6327 23.3851 12.6327C23.2487 12.6327 23.1184 12.6686 22.9941 12.7434C22.8698 12.8181 22.7516 12.9509 22.6424 13.1418C22.5303 13.3327 22.4363 13.5125 22.3544 13.6758C22.2726 13.839 22.1786 14.1019 22.0664 14.4643C21.9543 14.8268 21.8694 15.1173 21.8057 15.3387C21.7421 15.56 21.6511 15.9114 21.5268 16.3984C21.1297 18.2743 20.9266 19.2676 20.9145 19.3811C20.678 20.2969 20.3385 20.9582 19.8928 21.3649C19.4472 21.7716 18.8591 21.9764 18.1285 21.9764C17.4464 21.9764 16.8947 21.7578 16.4672 21.3234C16.0398 20.889 15.7093 20.2416 15.4729 19.3838C15.1515 17.8814 14.909 16.8134 14.7483 16.1798C14.4634 15.026 14.1905 14.1794 13.9298 13.6371C13.6691 13.0947 13.3478 12.8236 12.9628 12.8236C12.6414 12.8236 12.3807 13.1695 12.1837 13.8584C11.9866 14.5473 11.8927 15.5074 11.9048 16.7415C11.9048 17.9838 12.0654 20.2056 12.3868 23.4041C12.4232 23.7555 12.3474 24.0322 12.1534 24.2341C11.9624 24.4389 11.7108 24.5551 11.4015 24.5911C10.5345 24.6824 8.73381 24.7266 5.99635 24.7266L5.99938 24.7128Z" fill="#08090A"/>
<path d="M42.9209 24.7128C41.3597 24.7128 39.7136 24.6685 37.9796 24.5772C37.6461 24.5551 37.3763 24.4306 37.1702 24.2037C36.967 23.9768 36.8882 23.7167 36.9367 23.4234C37.443 19.536 38.3615 15.5019 39.6863 11.3212C41.0111 7.14046 42.3541 3.65421 43.7152 0.86245C43.8759 0.499991 44.179 0.303544 44.6247 0.270342C45.7888 0.179035 48.1473 0.134766 51.7002 0.134766C55.2532 0.134766 57.6632 0.179035 58.8516 0.270342C59.2972 0.303544 59.6004 0.502758 59.761 0.86245C61.1222 3.63208 62.4651 7.11279 63.7899 11.3046C65.1147 15.4964 66.0302 19.536 66.5395 23.4234C66.588 23.7167 66.5153 23.974 66.3182 24.1954C66.1212 24.4167 65.8604 24.544 65.5391 24.5772C64.2871 24.6685 62.5046 24.7128 60.1915 24.7128C57.8785 24.7128 56.3112 24.6685 55.1592 24.5772C54.8257 24.544 54.5468 24.4112 54.3225 24.1788C54.0982 23.9464 54.0133 23.6725 54.0618 23.357C54.1982 22.1258 54.2467 21.0412 54.2103 20.1032C54.1982 19.4253 53.9617 18.9356 53.504 18.6368C53.0462 18.3379 52.4945 18.1885 51.8518 18.1885H51.6305C51.0121 18.1885 50.4603 18.3435 49.9783 18.6534C49.4963 18.9633 49.2477 19.4475 49.2356 20.1032C49.2356 21.4368 49.2962 22.5325 49.4205 23.393C49.4327 23.7223 49.3356 23.9934 49.1325 24.2065C48.9294 24.4223 48.6596 24.5468 48.3231 24.58C47.0984 24.6713 45.2946 24.7156 42.9179 24.7156L42.9209 24.7128ZM51.6305 14.4754H51.8912C52.3126 14.4754 52.6339 14.373 52.8583 14.1711C53.0796 13.9663 53.1554 13.6841 53.0796 13.3244C52.9431 11.8773 52.6461 10.1425 52.1883 8.11993C52.1125 7.80451 52.0185 7.58869 51.9003 7.47525C51.7821 7.36181 51.6608 7.36181 51.5396 7.47525C51.4153 7.58869 51.3183 7.80451 51.2425 8.11993C50.809 10.2781 50.5301 12.0129 50.4058 13.3244C50.33 13.6869 50.4058 13.9691 50.6392 14.1711C50.8696 14.3758 51.2 14.4754 51.6335 14.4754H51.6305Z" fill="#08090A"/>
<path d="M77.1288 24.8492C73.6122 24.8492 70.9081 23.9334 69.0134 22.1045C67.1187 20.2756 66.1729 17.4423 66.1729 13.613C66.1729 10.9346 66.8458 8.56344 68.1888 6.50213C69.5318 4.44081 71.4204 2.84157 73.8547 1.70439C76.289 0.569974 79.0689 0 82.2035 0C85.7201 0 88.7728 0.417796 91.3587 1.25339C91.8801 1.50241 92.0954 1.89253 92.0075 2.42377C91.9953 2.46804 91.871 3.41154 91.6346 5.25427C91.3981 7.097 91.2314 8.35039 91.1344 9.0172C91.0859 9.37966 90.904 9.60931 90.5948 9.71169C90.2855 9.81406 89.9945 9.78086 89.7217 9.60931C87.9634 8.76265 85.8595 8.33932 83.407 8.33932C81.7609 8.33932 80.4937 8.76542 79.6085 9.62038C78.7233 10.4726 78.2807 11.7702 78.2807 13.5106C78.2807 15.5913 79.1053 16.6288 80.7514 16.6288C81.2728 16.6288 81.7579 16.3909 82.2096 15.9178C82.6613 15.4419 82.8886 14.7999 82.8886 13.9865C82.8886 13.2173 82.7704 12.6529 82.537 12.2904C82.4006 11.975 82.4006 11.7011 82.537 11.4686C82.6734 11.2362 82.9159 11.1145 83.2615 11.1034C84.747 11.001 87.9664 10.8101 92.9199 10.5279C93.2655 10.5168 93.5566 10.6081 93.793 10.7991C94.0295 10.9927 94.1568 11.2335 94.1841 11.5267C94.4812 14.9272 94.6297 18.9226 94.6297 23.51C94.6297 23.8033 94.5236 24.0468 94.3144 24.2377C94.1053 24.4314 93.8324 24.5421 93.4959 24.578C93.0018 24.6223 91.6831 24.6472 89.5398 24.6472C87.3965 24.6472 86.0778 24.6251 85.5837 24.578C85.1987 24.5227 84.8985 24.4093 84.6833 24.2377C84.4681 24.0689 84.3832 23.8476 84.4317 23.5764C84.5924 22.1764 84.659 21.1748 84.6348 20.5772C84.659 20.0127 84.5469 19.7222 84.3013 19.7028C84.0527 19.6862 83.8072 19.9546 83.5586 20.508C82.3339 23.4021 80.1906 24.8464 77.1318 24.8464L77.1288 24.8492Z" fill="#08090A"/>
<path d="M110.151 24.8497C108.344 24.8497 106.719 24.7362 105.276 24.5094C103.833 24.2825 102.493 23.8979 101.257 23.3556C100.02 22.8133 98.989 22.116 98.1645 21.2611C97.3399 20.4089 96.6972 19.3326 96.2334 18.0321C95.7696 16.7317 95.5361 15.2348 95.5361 13.5387C95.5361 11.4359 95.8878 9.53509 96.5941 7.83347C97.3005 6.13185 98.2918 4.71245 99.565 3.56974C100.841 2.42979 102.378 1.54993 104.179 0.932921C105.98 0.31591 107.971 0.00325495 110.151 -0.0078125C113.061 -0.0078125 115.611 0.523425 117.803 1.5859C119.994 2.64838 121.698 4.20612 122.92 6.25636C124.139 8.30661 124.751 10.7331 124.751 13.536C124.751 15.6499 124.408 17.4483 123.72 18.9341C123.032 20.4199 122.026 21.5903 120.701 22.4425C119.376 23.2947 117.857 23.9089 116.141 24.2825C114.426 24.656 112.431 24.8414 110.151 24.8414V24.8497ZM110.151 16.4938C111.849 16.4938 112.695 15.3704 112.695 13.1209C112.695 11.8095 112.464 10.6916 112.006 9.76474C111.549 8.83784 110.93 8.37578 110.148 8.37578C109.366 8.37578 108.747 8.84061 108.29 9.76474C107.832 10.6916 107.602 11.8095 107.602 13.1209C107.602 15.3704 108.45 16.4938 110.145 16.4938H110.151Z" fill="#08090A"/>
<path d="M140.261 24.8497C138.455 24.8497 136.83 24.7362 135.387 24.5094C133.944 24.2825 132.604 23.8979 131.367 23.3556C130.13 22.8133 129.099 22.116 128.275 21.2611C127.45 20.4089 126.808 19.3326 126.344 18.0321C125.88 16.7317 125.646 15.2348 125.646 13.5387C125.646 11.4359 125.998 9.53509 126.704 7.83347C127.411 6.13185 128.402 4.71245 129.675 3.56974C130.952 2.42979 132.489 1.54993 134.289 0.932921C136.09 0.31591 138.082 0.00325495 140.261 -0.0078125C143.172 -0.0078125 145.721 0.523425 147.913 1.5859C150.105 2.64838 151.808 4.20612 153.03 6.25636C154.249 8.30661 154.861 10.7331 154.861 13.536C154.861 15.6499 154.519 17.4483 153.831 18.9341C153.142 20.4199 152.136 21.5903 150.811 22.4425C149.486 23.2947 147.968 23.9089 146.252 24.2825C144.536 24.656 142.541 24.8414 140.261 24.8414V24.8497ZM140.261 16.4938C141.959 16.4938 142.805 15.3704 142.805 13.1209C142.805 11.8095 142.574 10.6916 142.117 9.76474C141.659 8.83784 141.041 8.37578 140.258 8.37578C139.476 8.37578 138.858 8.84061 138.4 9.76474C137.942 10.6916 137.712 11.8095 137.712 13.1209C137.712 15.3704 138.561 16.4938 140.255 16.4938H140.261Z" fill="#08090A"/>
<path d="M161.583 24.7136C159.182 24.7136 157.561 24.6693 156.718 24.578C156.396 24.5448 156.127 24.4231 155.908 24.2128C155.693 24.0025 155.584 23.7535 155.584 23.4575C155.745 17.0964 156.557 9.65912 158.018 1.15102C158.055 0.902 158.176 0.700019 158.379 0.539541C158.582 0.38183 158.828 0.290524 159.113 0.268389C160.301 0.177082 162.041 0.132812 164.333 0.132812C166.625 0.132812 168.247 0.177082 169.086 0.268389C170.026 0.370763 170.608 0.868798 170.833 1.75973C171.154 3.34237 171.493 4.88351 171.854 6.38869C172.424 8.51364 173.073 9.57611 173.803 9.57611C174.473 9.57611 175.052 8.60494 175.55 6.65984C175.747 5.94876 175.98 5.00802 176.247 3.83764C176.514 2.66726 176.671 1.97554 176.72 1.76249C176.944 0.868798 177.511 0.373529 178.43 0.271156C179.272 0.179849 180.87 0.135579 183.222 0.135579C185.326 0.135579 187.054 0.179849 188.403 0.271156C188.7 0.29329 188.952 0.38183 189.155 0.534007C189.358 0.686185 189.485 0.893699 189.537 1.15378C190.962 9.4931 191.759 16.9304 191.932 23.4602C191.944 23.7535 191.847 24.0053 191.644 24.2156C191.441 24.4259 191.171 24.5448 190.834 24.5808C189.992 24.6721 188.382 24.7164 186.005 24.7164C183.244 24.7164 181.431 24.6721 180.564 24.5808C180.242 24.5476 179.982 24.4286 179.785 24.2239C179.588 24.0191 179.506 23.7424 179.542 23.3938C179.888 20.84 180.063 18.5518 180.063 16.5292C180.063 15.2869 179.963 14.3268 179.766 13.6489C179.569 12.971 179.303 12.6307 178.969 12.6307C178.833 12.6307 178.702 12.6667 178.578 12.7414C178.454 12.8161 178.336 12.9489 178.226 13.1398C178.114 13.3307 178.02 13.5106 177.938 13.6738C177.857 13.8371 177.763 14.0999 177.65 14.4624C177.538 14.8248 177.453 15.1154 177.39 15.3367C177.326 15.5581 177.235 15.9095 177.111 16.3964C176.714 18.2724 176.511 19.2657 176.498 19.3791C176.262 20.2949 175.922 20.9562 175.477 21.3629C175.031 21.7697 174.443 21.9744 173.712 21.9744C173.03 21.9744 172.479 21.7558 172.051 21.3214C171.624 20.887 171.293 20.2396 171.057 19.3819C170.736 17.8795 170.493 16.8115 170.332 16.1778C170.047 15.0241 169.775 14.1774 169.514 13.6351C169.253 13.0928 168.932 12.8216 168.547 12.8216C168.225 12.8216 167.965 13.1675 167.768 13.8564C167.571 14.5454 167.477 15.5055 167.489 16.7395C167.489 17.9818 167.649 20.2036 167.971 23.4021C168.007 23.7535 167.931 24.0302 167.737 24.2322C167.546 24.4369 167.295 24.5531 166.986 24.5891C166.119 24.6804 164.318 24.7247 161.58 24.7247L161.583 24.7136Z" fill="#08090A"/>
</g>
<defs>
<clipPath id="clip0_2004_290">
<rect width="191.931" height="24.8492" fill="white"/>
</clipPath>
</defs>
</svg>
